<svg width="24" height="24" viewBox="0 0 24 24" fill="none" xmlns="http://www.w3.org/2000/svg">
<path d="M20 21V3H13C12.7348 3 12.4804 2.89464 12.2929 2.70711C12.1054 2.51957 12 2.26522 12 2C12 1.73478 12.1054 1.48043 12.2929 1.29289C12.4804 1.10536 12.7348 1 13 1H21C21.2652 1 21.5196 1.10536 21.7071 1.29289C21.8946 1.48043 22 1.73478 22 2V22C22 22.2652 21.8946 22.5196 21.7071 22.7071C21.5196 22.8946 21.2652 23 21 23H13C12.7348 23 12.4804 22.8946 12.2929 22.7071C12.1054 22.5196 12 22.2652 12 22C12 21.7348 12.1054 21.4804 12.2929 21.2929C12.4804 21.1054 12.7348 21 13 21H20ZM2 12C2 12.2652 2.10536 12.5196 2.29289 12.7071C2.48043 12.8946 2.73478 13 3 13H14.586L12.293 15.293C12.1975 15.3852 12.1213 15.4956 12.0689 15.6176C12.0165 15.7396 11.9889 15.8708 11.9877 16.0036C11.9866 16.1364 12.0119 16.2681 12.0622 16.391C12.1125 16.5138 12.1867 16.6255 12.2806 16.7194C12.3745 16.8133 12.4861 16.8875 12.609 16.9378C12.7319 16.9881 12.8636 17.0134 12.9964 17.0123C13.1292 17.0111 13.2604 16.9835 13.3824 16.9311C13.5044 16.8787 13.6148 16.8025 13.707 16.707L17.707 12.707C17.8945 12.5195 17.9998 12.2652 17.9998 12C17.9998 11.7348 17.8945 11.4805 17.707 11.293L13.707 7.293C13.6148 7.19749 13.5044 7.12131 13.3824 7.0689C13.2604 7.01649 13.1292 6.9889 12.9964 6.98775C12.8636 6.9866 12.7319 7.0119 12.609 7.06218C12.4861 7.11246 12.3745 7.18671 12.2806 7.2806C12.1867 7.3745 12.1125 7.48615 12.0622 7.60905C12.0119 7.73194 11.9866 7.86362 11.9877 7.9964C11.9889 8.12918 12.0165 8.2604 12.0689 8.3824C12.1213 8.50441 12.1975 8.61475 12.293 8.707L14.586 11H3C2.73478 11 2.48043 11.1054 2.29289 11.2929C2.10536 11.4804 2 11.7348 2 12V12Z" fill="black"/>
</svg>
