<svg width="20" height="20" viewBox="0 0 20 20" fill="none" xmlns="http://www.w3.org/2000/svg">
<path d="M10 0.833336C8.18705 0.833336 6.41477 1.37095 4.90732 2.3782C3.39987 3.38544 2.22495 4.81708 1.53115 6.49207C0.837346 8.16706 0.655815 10.0102 1.00951 11.7883C1.36321 13.5665 2.23625 15.1998 3.51823 16.4818C4.80021 17.7638 6.43356 18.6368 8.21172 18.9905C9.98988 19.3442 11.833 19.1627 13.508 18.4689C15.183 17.7751 16.6146 16.6002 17.6219 15.0927C18.6291 13.5853 19.1667 11.813 19.1667 10C19.1638 7.56973 18.1972 5.23982 16.4787 3.52136C14.7602 1.8029 12.4303 0.836203 10 0.833336ZM10 17.5C8.51669 17.5 7.06664 17.0601 5.83327 16.236C4.5999 15.4119 3.63861 14.2406 3.07095 12.8701C2.50329 11.4997 2.35477 9.99168 2.64416 8.53683C2.93354 7.08197 3.64785 5.7456 4.69674 4.6967C5.74564 3.64781 7.08201 2.9335 8.53687 2.64411C9.99173 2.35472 11.4997 2.50325 12.8702 3.07091C14.2406 3.63856 15.412 4.59986 16.2361 5.83323C17.0602 7.0666 17.5 8.51664 17.5 10C17.4978 11.9885 16.707 13.8948 15.3009 15.3009C13.8949 16.7069 11.9885 17.4978 10 17.5ZM14.1667 10C14.1667 10.221 14.0789 10.433 13.9226 10.5893C13.7664 10.7455 13.5544 10.8333 13.3334 10.8333H10.8334V13.3333C10.8334 13.5544 10.7456 13.7663 10.5893 13.9226C10.433 14.0789 10.2211 14.1667 10 14.1667C9.77903 14.1667 9.56707 14.0789 9.41079 13.9226C9.25451 13.7663 9.16671 13.5544 9.16671 13.3333V10.8333H6.66671C6.4457 10.8333 6.23374 10.7455 6.07746 10.5893C5.92118 10.433 5.83338 10.221 5.83338 10C5.83338 9.77899 5.92118 9.56703 6.07746 9.41075C6.23374 9.25447 6.4457 9.16667 6.66671 9.16667H9.16671V6.66667C9.16671 6.44566 9.25451 6.2337 9.41079 6.07741C9.56707 5.92113 9.77903 5.83334 10 5.83334C10.2211 5.83334 10.433 5.92113 10.5893 6.07741C10.7456 6.2337 10.8334 6.44566 10.8334 6.66667V9.16667H13.3334C13.5544 9.16667 13.7664 9.25447 13.9226 9.41075C14.0789 9.56703 14.1667 9.77899 14.1667 10Z" fill="black"/>
</svg>
