<svg width="24" height="24" viewBox="0 0 24 24" fill="none" xmlns="http://www.w3.org/2000/svg">
<path d="M3.29279 20.707C3.10532 20.5195 3 20.2652 3 20C3 19.7348 3.10532 19.4805 3.29279 19.293L17.5858 5H11.9998C11.7346 5 11.4802 4.89464 11.2927 4.70711C11.1051 4.51957 10.9998 4.26522 10.9998 4C10.9998 3.73478 11.1051 3.48043 11.2927 3.29289C11.4802 3.10536 11.7346 3 11.9998 3H19.9998C20.265 3 20.5194 3.10536 20.7069 3.29289C20.8944 3.48043 20.9998 3.73478 20.9998 4V12C20.9998 12.2652 20.8944 12.5196 20.7069 12.7071C20.5194 12.8946 20.265 13 19.9998 13C19.7346 13 19.4802 12.8946 19.2927 12.7071C19.1051 12.5196 18.9998 12.2652 18.9998 12V6.414L4.70679 20.707C4.51926 20.8945 4.26495 20.9998 3.99979 20.9998C3.73462 20.9998 3.48031 20.8945 3.29279 20.707V20.707Z" fill="black"/>
</svg>
