<svg width="399" height="221" viewBox="0 0 399 221" fill="none" xmlns="http://www.w3.org/2000/svg">
<path opacity="0.96" d="M240.861 88.938L241.603 81.885L246.016 80.1039L245.274 87.1569L240.861 88.938Z" fill="#00CA8E"/>
<path d="M302.846 17.6016L308.107 13.3414L312.287 15.1178L307.026 19.378L302.846 17.6016Z" fill="#F25E40"/>
<circle opacity="0.86" cx="50.9216" cy="125.959" r="3.25044" transform="rotate(-174 50.9216 125.959)" fill="#F25E40"/>
<path opacity="0.83" d="M154.601 104.459L162.427 100.471L167.255 103.854L159.428 107.842L154.601 104.459Z" fill="#3174D9"/>
<path opacity="0.82" d="M145.398 66.8792L150.065 62.5125L150.496 70.7342L145.398 66.8792Z" fill="#00CA8E"/>
<circle opacity="0.96" cx="45.1265" cy="128.883" r="3.93993" transform="rotate(13 45.1265 128.883)" fill="#3174D9"/>
<path opacity="0.95" d="M103.063 186.182L106.847 193.297L103.821 197.779L100.038 190.664L103.063 186.182Z" fill="#F4C008"/>
<circle opacity="0.88" cx="147.267" cy="197.95" r="3.7101" fill="#EE5DFB"/>
<path opacity="0.94" d="M25.0681 21.6399L19.8138 20.9104L24.8919 16.338L25.0681 21.6399Z" fill="#00CA8E"/>
<path opacity="0.75" d="M112 30L119.845 27.2986L123.916 31.0973L116.071 33.7987L112 30Z" fill="#00CA8E"/>
<path opacity="0.73" d="M153 22L160.73 19.1863L164.831 22.8816L157.101 25.6952L153 22Z" fill="#00CA8E"/>
<path opacity="0.71" d="M198 40L199.707 48.7811L195.041 52.557L193.334 43.7759L198 40Z" fill="#F4C008"/>
<path opacity="0.71" d="M302 34L294.765 34.5059L292.187 30.3776L299.422 29.8716L302 34Z" fill="#F4C008"/>
<path opacity="0.84" d="M382 23L384.837 18.2792L388.527 18.4739L385.691 23.1947L382 23Z" fill="#EE5DFB"/>
<path opacity="0.99" d="M31 48.9653L25.9956 51.7393L22.7762 49.647L27.7807 46.873L31 48.9653Z" fill="#F4C008"/>
<circle opacity="0.75" cx="85.5773" cy="49.3941" r="2.04778" transform="rotate(12 85.5773 49.3941)" fill="#F25E40"/>
<path opacity="0.77" d="M186 56.9653L188.769 65.4867L184.591 69.8102L181.822 61.2887L186 56.9653Z" fill="#3174D9"/>
<path opacity="0.86" d="M258.464 51.6619L264.321 47.5463L263.517 56.7321L258.464 51.6619Z" fill="#00CA8E"/>
<circle opacity="0.94" cx="269.611" cy="60.0754" r="3.9327" transform="rotate(-11 269.611 60.0754)" fill="#EE5DFB"/>
<circle cx="372.684" cy="51.2017" r="2.82788" transform="rotate(101 372.684 51.2017)" fill="#F25E40"/>
<path opacity="0.94" d="M48 99.9307L53.2537 103.748L52.6457 108.063L47.392 104.246L48 99.9307Z" fill="#EE5DFB"/>
<path opacity="0.9" d="M71 82.9307L75.1213 79.3481L78.5417 80.6625L74.4204 84.2451L71 82.9307Z" fill="#00CA8E"/>
<path opacity="0.88" d="M171 111.931L169.385 120.237L163.955 121.895L165.569 113.589L171 111.931Z" fill="#F4C008"/>
<path opacity="0.86" d="M199 80.9307L205.043 79.424L207.838 82.5307L201.795 84.0373L199 80.9307Z" fill="#F25E40"/>
<path d="M303 89.9307L305.356 98.1484L301.228 102.132L298.872 93.9141L303 89.9307Z" fill="#EE5DFB"/>
<path opacity="0.93" d="M357 95.9307L364.018 100.488L363.527 106.082L356.509 101.525L357 95.9307Z" fill="#00CA8E"/>
<circle opacity="0.75" cx="21.2229" cy="137.526" r="3.50654" transform="rotate(66 21.2229 137.526)" fill="#3174D9"/>
<path opacity="0.8" d="M81 132.896L79.6674 142.378L73.6292 144.573L74.9617 135.091L81 132.896Z" fill="#3174D9"/>
<circle opacity="0.76" cx="180.907" cy="139.069" r="2.41156" transform="rotate(-101 180.907 139.069)" fill="#EE5DFB"/>
<path opacity="0.9" d="M238 132.896L237.407 138.537L233.878 139.961L234.471 134.32L238 132.896Z" fill="#EE5DFB"/>
<path opacity="0.73" d="M279.249 115.636L282.98 111.175L284.281 118.553L279.249 115.636Z" fill="#00CA8E"/>
<path opacity="0.91" d="M368 117.896L362.414 118.681L360.19 115.618L365.776 114.833L368 117.896Z" fill="#F4C008"/>
<path opacity="0.75" d="M46 179.861L52.3427 181.561L53.3323 185.855L46.9896 184.155L46 179.861Z" fill="#F25E40"/>
<circle opacity="0.72" cx="73.0804" cy="153.088" r="2.93098" transform="rotate(-87 73.0804 153.088)" fill="#EE5DFB"/>
<circle opacity="0.88" cx="191.893" cy="157.368" r="2.89289" transform="rotate(76 191.893 157.368)" fill="#F25E40"/>
<circle opacity="0.96" cx="203.713" cy="154.599" r="2.79538" transform="rotate(64 203.713 154.599)" fill="#F25E40"/>
<circle opacity="0.88" cx="284.62" cy="185.51" r="4.15531" transform="rotate(29 284.62 185.51)" fill="#EE5DFB"/>
<circle opacity="0.93" cx="346.427" cy="146.528" r="3.45039" transform="rotate(28 346.427 146.528)" fill="#EE5DFB"/>
<path opacity="0.84" d="M56 183.826L53.9223 189.239L50.0608 189.711L52.1385 184.299L56 183.826Z" fill="#3174D9"/>
<path opacity="0.79" d="M111 193.826L116.074 185.706L122.483 186.157L117.409 194.277L111 193.826Z" fill="#3174D9"/>
<circle opacity="0.78" cx="182.985" cy="198.859" r="4.09752" transform="rotate(-104 182.985 198.859)" fill="#3174D9"/>
<circle opacity="0.82" cx="241.252" cy="195.576" r="2.9254" transform="rotate(70 241.252 195.576)" fill="#F25E40"/>
<circle opacity="0.88" cx="330.498" cy="201.423" r="3.673" transform="rotate(-15 330.498 201.423)" fill="#EE5DFB"/>
<path opacity="0.9" d="M360 198.826L363.693 201.816L363.083 204.946L359.391 201.956L360 198.826Z" fill="#00CA8E"/>
</svg>
