<svg width="40" height="32" viewBox="0 0 40 32" fill="none" xmlns="http://www.w3.org/2000/svg">
<path d="M4.14058 12.3077L16.3086 25.0962L10.4492 12.3077H4.14058ZM20 27.1538L26.8164 12.3077H13.1836L20 27.1538ZM10.5078 9.84615L14.4921 2.46154H9.37496L3.74996 9.84615H10.5078ZM23.6914 25.0962L35.8593 12.3077H29.5507L23.6914 25.0962ZM13.3398 9.84615H26.6601L22.6757 2.46154H17.3242L13.3398 9.84615ZM29.4921 9.84615H36.25L30.625 2.46154H25.5078L29.4921 9.84615ZM32.2461 0.5L39.7461 10.3462C39.9283 10.5769 40.013 10.8429 40 11.1442C39.9869 11.4455 39.8763 11.7051 39.6679 11.9231L20.9179 31.6154C20.6836 31.8718 20.3776 32 20 32C19.6224 32 19.3164 31.8718 19.082 31.6154L0.331991 11.9231C0.123657 11.7051 0.0129801 11.4455 -4.06902e-05 11.1442C-0.0130615 10.8429 0.0715739 10.5769 0.253866 10.3462L7.75387 0.5C7.98824 0.166667 8.32027 0 8.74996 0H31.25C31.6796 0 32.0117 0.166667 32.2461 0.5Z" fill="black"/>
</svg>
