<svg width="92" height="18" viewBox="0 0 92 18" fill="none" xmlns="http://www.w3.org/2000/svg">
<path d="M0.0650446 18V0.48H3.47304V18H0.0650446ZM2.99304 10.704V7.824L10.001 7.8V10.68L2.99304 10.704ZM2.99304 3.36V0.48H10.337V3.36H2.99304ZM25.5427 18V0.48H28.9507V18H25.5427ZM45.3229 18V0.36H48.7309V18H45.3229ZM56.0269 18L50.6509 10.368H54.4669L60.0109 18H56.0269ZM47.7229 12.144V9.384H52.1869C52.8109 9.384 53.3469 9.256 53.7949 9C54.2589 8.744 54.6189 8.384 54.8749 7.92C55.1309 7.456 55.2589 6.928 55.2589 6.336C55.2589 5.728 55.1309 5.192 54.8749 4.728C54.6189 4.264 54.2589 3.904 53.7949 3.648C53.3469 3.392 52.8109 3.264 52.1869 3.264H47.7229V0.36H51.8269C53.2349 0.36 54.4509 0.567999 55.4749 0.983999C56.5149 1.4 57.3149 2.032 57.8749 2.88C58.4349 3.728 58.7149 4.792 58.7149 6.072V6.456C58.7149 7.752 58.4269 8.816 57.8509 9.648C57.2909 10.48 56.4989 11.104 55.4749 11.52C54.4509 11.936 53.2349 12.144 51.8269 12.144H47.7229ZM74.5963 18V0.48H80.1883L87.5563 15.168H88.3483L87.8683 15.6V0.48H91.0843V18H85.4683L78.1003 3.312H77.2843L77.7643 2.88V18H74.5963Z" fill="black"/>
</svg>
