<svg width="350" height="34" viewBox="0 0 450 34" fill="none" xmlns="http://www.w3.org/2000/svg">
<path d="M24.0025 243.481L21.2469 249.606V252.873H20.106V249.606L17.3637 243.481H18.5647L20.9199 248.925H20.4396L22.7881 243.481H24.0025Z" fill="black" fill-opacity="0.76"/>
<path d="M24.6368 252.873V246.111H25.771V248.186L25.3974 248.059C25.4241 247.809 25.4908 247.562 25.5975 247.32C25.7043 247.074 25.8511 246.854 26.0379 246.658C26.2292 246.459 26.4671 246.302 26.7518 246.187C27.0365 246.068 27.3701 246.009 27.7526 246.009C28.0373 246.009 28.2686 246.032 28.4465 246.079C28.6289 246.121 28.7423 246.155 28.7868 246.181L28.4932 247.244C28.4487 247.214 28.3576 247.176 28.2197 247.129C28.0862 247.083 27.895 247.059 27.6459 247.059C27.2767 247.059 26.9698 247.123 26.7251 247.25C26.4849 247.378 26.2937 247.548 26.1513 247.76C26.0134 247.968 25.9156 248.195 25.8577 248.441C25.7999 248.687 25.771 248.931 25.771 249.173V252.873H24.6368Z" fill="black" fill-opacity="0.76"/>
<path d="M35.6941 243.449V252.873H34.5599V244.627C34.5243 244.674 34.4131 244.735 34.2263 244.812C34.0439 244.888 33.8171 244.962 33.5457 245.035C33.2788 245.103 32.9942 245.151 32.6917 245.181V244.201C32.9897 244.154 33.27 244.088 33.5324 244.003C33.7993 243.918 34.0261 243.827 34.2129 243.729C34.3998 243.627 34.5243 243.534 34.5866 243.449H35.6941Z" fill="black" fill-opacity="0.76"/>
<path d="M95.6705 243.481L92.9149 249.606V252.873H91.7739V249.606L89.0317 243.481H90.2327L92.588 248.925H92.1076L94.4561 243.481H95.6705Z" fill="black" fill-opacity="0.76"/>
<path d="M96.3047 252.873V246.111H97.439V248.186L97.0654 248.059C97.0921 247.809 97.1588 247.562 97.2655 247.32C97.3723 247.074 97.5191 246.854 97.7059 246.658C97.8972 246.459 98.1351 246.302 98.4198 246.187C98.7045 246.068 99.0381 246.009 99.4206 246.009C99.7053 246.009 99.9366 246.032 100.115 246.079C100.297 246.121 100.41 246.155 100.455 246.181L100.161 247.244C100.117 247.214 100.026 247.176 99.8877 247.129C99.7542 247.083 99.563 247.059 99.3139 247.059C98.9447 247.059 98.6378 247.123 98.3931 247.25C98.1529 247.378 97.9617 247.548 97.8193 247.76C97.6814 247.968 97.5836 248.195 97.5257 248.441C97.4679 248.687 97.439 248.931 97.439 249.173V252.873H96.3047Z" fill="black" fill-opacity="0.76"/>
<path d="M108.49 247.925C108.881 247.938 109.195 248.044 109.43 248.244C109.671 248.443 109.844 248.706 109.951 249.033C110.058 249.356 110.111 249.712 110.111 250.103C110.111 250.65 110.009 251.143 109.804 251.58C109.604 252.017 109.295 252.363 108.877 252.618C108.463 252.873 107.936 253 107.295 253C106.766 253 106.317 252.932 105.948 252.796C105.578 252.66 105.278 252.463 105.047 252.204C104.82 251.945 104.653 251.631 104.547 251.262C104.44 250.892 104.386 250.476 104.386 250.014C104.386 250.01 104.386 250.005 104.386 250.001C104.386 249.997 104.386 249.993 104.386 249.988H105.527C105.527 249.993 105.527 249.997 105.527 250.001C105.527 250.005 105.527 250.01 105.527 250.014C105.527 250.544 105.598 250.958 105.741 251.255C105.883 251.548 106.086 251.754 106.348 251.873C106.615 251.988 106.935 252.045 107.309 252.045C107.82 252.045 108.223 251.884 108.516 251.561C108.814 251.238 108.963 250.744 108.963 250.077C108.963 249.857 108.939 249.647 108.89 249.447C108.846 249.243 108.761 249.065 108.637 248.912C108.516 248.755 108.345 248.632 108.123 248.543C107.9 248.45 107.613 248.403 107.262 248.403H106.895V247.518H107.262C107.605 247.518 107.885 247.473 108.103 247.384C108.325 247.291 108.499 247.17 108.623 247.021C108.748 246.868 108.834 246.699 108.883 246.512C108.937 246.321 108.963 246.128 108.963 245.932C108.963 245.368 108.817 244.96 108.523 244.71C108.23 244.459 107.831 244.334 107.329 244.334C106.782 244.334 106.344 244.472 106.014 244.748C105.69 245.024 105.527 245.521 105.527 246.238H104.386C104.386 245.814 104.444 245.425 104.56 245.073C104.68 244.72 104.86 244.417 105.1 244.162C105.34 243.908 105.643 243.712 106.008 243.577C106.377 243.436 106.811 243.366 107.309 243.366C107.945 243.366 108.47 243.477 108.883 243.697C109.297 243.918 109.604 244.22 109.804 244.602C110.009 244.979 110.111 245.406 110.111 245.881C110.111 246.23 110.058 246.556 109.951 246.862C109.844 247.168 109.671 247.418 109.43 247.613C109.195 247.804 108.881 247.908 108.49 247.925Z" fill="black" fill-opacity="0.76"/>
<path d="M170.462 243.477L167.706 249.603V252.869H166.565V249.603L163.823 243.477H165.024L167.379 248.921H166.899L169.247 243.477H170.462Z" fill="black" fill-opacity="0.76"/>
<path d="M171.096 252.869V246.107H172.23V248.183L171.857 248.055C171.883 247.805 171.95 247.559 172.057 247.317C172.163 247.071 172.31 246.85 172.497 246.655C172.688 246.455 172.926 246.298 173.211 246.184C173.496 246.065 173.829 246.005 174.212 246.005C174.496 246.005 174.728 246.029 174.906 246.075C175.088 246.118 175.202 246.152 175.246 246.177L174.952 247.24C174.908 247.211 174.817 247.173 174.679 247.126C174.545 247.079 174.354 247.056 174.105 247.056C173.736 247.056 173.429 247.119 173.184 247.247C172.944 247.374 172.753 247.544 172.611 247.756C172.473 247.964 172.375 248.191 172.317 248.438C172.259 248.684 172.23 248.928 172.23 249.17V252.869H171.096Z" fill="black" fill-opacity="0.76"/>
<path d="M184.662 244.426H180.819L180.472 247.521C180.485 247.47 180.53 247.402 180.605 247.317C180.685 247.232 180.801 247.145 180.952 247.056C181.108 246.967 181.302 246.892 181.533 246.833C181.764 246.774 182.035 246.744 182.347 246.744C183.156 246.744 183.77 247.02 184.188 247.572C184.611 248.123 184.822 248.851 184.822 249.756C184.822 250.452 184.709 251.042 184.482 251.526C184.259 252.01 183.937 252.377 183.514 252.627C183.092 252.873 182.58 252.996 181.98 252.996C181.495 252.996 181.072 252.928 180.712 252.793C180.356 252.653 180.063 252.457 179.831 252.207C179.605 251.956 179.433 251.664 179.318 251.328C179.206 250.993 179.151 250.626 179.151 250.227C179.151 250.222 179.151 250.22 179.151 250.22C179.151 250.216 179.151 250.212 179.151 250.208H180.278C180.278 250.212 180.278 250.216 180.278 250.22C180.278 250.22 180.278 250.222 180.278 250.227C180.283 250.868 180.434 251.33 180.732 251.615C181.035 251.899 181.455 252.041 181.993 252.041C182.34 252.041 182.638 251.959 182.887 251.793C183.141 251.627 183.334 251.377 183.468 251.042C183.606 250.706 183.675 250.284 183.675 249.775C183.675 249.095 183.543 248.58 183.281 248.227C183.023 247.875 182.643 247.699 182.14 247.699C181.815 247.699 181.531 247.76 181.286 247.884C181.041 248.002 180.839 248.149 180.679 248.323C180.523 248.497 180.412 248.662 180.345 248.82L179.251 248.552L179.858 243.477H184.662V244.426Z" fill="black" fill-opacity="0.76"/>
<path d="M242.352 243.477L239.597 249.603V252.869H238.456V249.603L235.714 243.477H236.915L239.27 248.921H238.789L241.138 243.477H242.352Z" fill="black" fill-opacity="0.76"/>
<path d="M242.987 252.869V246.107H244.121V248.183L243.747 248.055C243.774 247.805 243.841 247.559 243.947 247.317C244.054 247.071 244.201 246.85 244.388 246.655C244.579 246.455 244.817 246.298 245.102 246.184C245.386 246.065 245.72 246.005 246.103 246.005C246.387 246.005 246.618 246.029 246.796 246.075C246.979 246.118 247.092 246.152 247.137 246.177L246.843 247.24C246.799 247.211 246.707 247.173 246.57 247.126C246.436 247.079 246.245 247.056 245.996 247.056C245.627 247.056 245.32 247.119 245.075 247.247C244.835 247.374 244.644 247.544 244.501 247.756C244.363 247.964 244.265 248.191 244.208 248.438C244.15 248.684 244.121 248.928 244.121 249.17V252.869H242.987Z" fill="black" fill-opacity="0.76"/>
<path d="M255.232 244.445V244.458H250.815V243.477H256.533V244.407C256.017 244.764 255.585 245.192 255.238 245.693C254.891 246.194 254.609 246.742 254.391 247.336C254.177 247.926 254.015 248.537 253.904 249.17C253.793 249.802 253.717 250.435 253.677 251.067C253.637 251.695 253.617 252.296 253.617 252.869H252.476C252.476 252.254 252.498 251.625 252.543 250.984C252.587 250.339 252.665 249.702 252.776 249.074C252.892 248.442 253.052 247.839 253.257 247.266C253.466 246.689 253.73 246.16 254.051 245.68C254.375 245.197 254.769 244.785 255.232 244.445Z" fill="black" fill-opacity="0.76"/>
<path d="M307.246 243.477L304.491 249.603V252.869H303.35V249.603L300.607 243.477H301.808L304.164 248.921H303.683L306.032 243.477H307.246Z" fill="black" fill-opacity="0.76"/>
<path d="M307.88 252.869V246.107H309.015V248.183L308.641 248.055C308.668 247.805 308.734 247.559 308.841 247.317C308.948 247.071 309.095 246.85 309.282 246.655C309.473 246.455 309.711 246.298 309.995 246.184C310.28 246.065 310.614 246.005 310.996 246.005C311.281 246.005 311.512 246.029 311.69 246.075C311.873 246.118 311.986 246.152 312.03 246.177L311.737 247.24C311.692 247.211 311.601 247.173 311.463 247.126C311.33 247.079 311.139 247.056 310.89 247.056C310.52 247.056 310.213 247.119 309.969 247.247C309.729 247.374 309.537 247.544 309.395 247.756C309.257 247.964 309.159 248.191 309.101 248.438C309.044 248.684 309.015 248.928 309.015 249.17V252.869H307.88Z" fill="black" fill-opacity="0.76"/>
<path d="M318.751 252.996C318.262 252.996 317.859 252.916 317.543 252.754C317.232 252.589 316.99 252.381 316.816 252.13C316.643 251.88 316.52 251.621 316.449 251.354C316.382 251.086 316.349 250.849 316.349 250.641C316.349 250.632 316.349 250.628 316.349 250.628C316.349 250.624 316.349 250.619 316.349 250.615H317.417C317.417 250.619 317.417 250.624 317.417 250.628C317.417 250.628 317.417 250.632 317.417 250.641C317.417 250.793 317.434 250.953 317.47 251.118C317.51 251.279 317.579 251.43 317.677 251.57C317.775 251.71 317.91 251.823 318.084 251.908C318.262 251.993 318.486 252.035 318.758 252.035C319.118 252.035 319.438 251.895 319.718 251.615C319.999 251.33 320.219 250.846 320.379 250.163C320.544 249.475 320.626 248.529 320.626 247.323H321.173C321.173 247.769 321.055 248.159 320.819 248.495C320.588 248.83 320.279 249.091 319.892 249.278C319.509 249.461 319.091 249.552 318.638 249.552C318.077 249.552 317.599 249.422 317.203 249.163C316.812 248.9 316.511 248.542 316.302 248.087C316.093 247.629 315.989 247.105 315.989 246.515C315.989 245.895 316.098 245.349 316.316 244.878C316.534 244.403 316.856 244.031 317.283 243.764C317.71 243.497 318.233 243.363 318.851 243.363C319.496 243.363 320.03 243.539 320.452 243.891C320.875 244.239 321.189 244.728 321.393 245.356C321.602 245.98 321.707 246.708 321.707 247.54C321.707 248.546 321.631 249.397 321.48 250.093C321.329 250.789 321.117 251.352 320.846 251.78C320.579 252.205 320.266 252.515 319.905 252.71C319.549 252.901 319.165 252.996 318.751 252.996ZM318.738 248.597C319.093 248.597 319.409 248.516 319.685 248.355C319.961 248.193 320.177 247.966 320.332 247.673C320.492 247.381 320.572 247.035 320.572 246.636C320.572 246.207 320.501 245.818 320.359 245.47C320.221 245.118 320.023 244.838 319.765 244.63C319.507 244.422 319.2 244.318 318.844 244.318C318.471 244.318 318.157 244.403 317.904 244.573C317.65 244.742 317.459 244.986 317.33 245.305C317.201 245.619 317.136 245.999 317.136 246.445C317.136 246.861 317.196 247.232 317.316 247.559C317.441 247.881 317.623 248.136 317.864 248.323C318.104 248.505 318.395 248.597 318.738 248.597Z" fill="black" fill-opacity="0.76"/>
<path d="M-3.68025 239.352C-4.21846 239.352 -4.67884 239.229 -5.06137 238.983C-5.43946 238.733 -5.7486 238.389 -5.9888 237.952C-6.22454 237.51 -6.39802 236.999 -6.50922 236.417C-6.61597 235.835 -6.66935 235.214 -6.66935 234.551C-6.66935 233.889 -6.61597 233.267 -6.50922 232.686C-6.39802 232.1 -6.22454 231.586 -5.9888 231.145C-5.7486 230.699 -5.43946 230.351 -5.06137 230.101C-4.67884 229.846 -4.21846 229.719 -3.68025 229.719C-3.14203 229.719 -2.68389 229.846 -2.3058 230.101C-1.92327 230.351 -1.61412 230.699 -1.37838 231.145C-1.14263 231.586 -0.969154 232.1 -0.857952 232.686C-0.74675 233.267 -0.691151 233.889 -0.691151 234.551C-0.691151 235.214 -0.74675 235.835 -0.857952 236.417C-0.969154 236.999 -1.14263 237.51 -1.37838 237.952C-1.61412 238.389 -1.92327 238.733 -2.3058 238.983C-2.68389 239.229 -3.14203 239.352 -3.68025 239.352ZM-3.68025 238.397C-3.26213 238.397 -2.91963 238.251 -2.65274 237.958C-2.38141 237.665 -2.17902 237.232 -2.04558 236.659C-1.91214 236.086 -1.84542 235.383 -1.84542 234.551C-1.84542 233.715 -1.91214 233.011 -2.04558 232.438C-2.17902 231.864 -2.38141 231.432 -2.65274 231.139C-2.91963 230.841 -3.26213 230.693 -3.68025 230.693C-4.09392 230.693 -4.43865 230.841 -4.71443 231.139C-4.98576 231.432 -5.18814 231.864 -5.32158 232.438C-5.45502 233.011 -5.52175 233.715 -5.52175 234.551C-5.52175 235.388 -5.45502 236.092 -5.32158 236.665C-5.18814 237.234 -4.98576 237.665 -4.71443 237.958C-4.43865 238.251 -4.09392 238.397 -3.68025 238.397Z" fill="black" fill-opacity="0.76"/>
<path d="M-30.8725 195.237V204.66H-32.0068V196.415C-32.0423 196.461 -32.1535 196.523 -32.3404 196.599C-32.5227 196.676 -32.7496 196.75 -33.0209 196.822C-33.2878 196.89 -33.5725 196.939 -33.8749 196.969V195.988C-33.5769 195.941 -33.2967 195.876 -33.0343 195.791C-32.7674 195.706 -32.5405 195.614 -32.3537 195.517C-32.1669 195.415 -32.0423 195.322 -31.9801 195.237H-30.8725Z" fill="black" fill-opacity="0.76"/>
<path d="M-25.7183 204.787C-26.2565 204.787 -26.7169 204.664 -27.0994 204.418C-27.4775 204.168 -27.7866 203.824 -28.0268 203.387C-28.2626 202.945 -28.436 202.434 -28.5472 201.852C-28.654 201.271 -28.7074 200.649 -28.7074 199.987C-28.7074 199.324 -28.654 198.703 -28.5472 198.121C-28.436 197.535 -28.2626 197.022 -28.0268 196.58C-27.7866 196.134 -27.4775 195.786 -27.0994 195.536C-26.7169 195.281 -26.2565 195.154 -25.7183 195.154C-25.1801 195.154 -24.7219 195.281 -24.3438 195.536C-23.9613 195.786 -23.6521 196.134 -23.4164 196.58C-23.1807 197.022 -23.0072 197.535 -22.896 198.121C-22.7848 198.703 -22.7292 199.324 -22.7292 199.987C-22.7292 200.649 -22.7848 201.271 -22.896 201.852C-23.0072 202.434 -23.1807 202.945 -23.4164 203.387C-23.6521 203.824 -23.9613 204.168 -24.3438 204.418C-24.7219 204.664 -25.1801 204.787 -25.7183 204.787ZM-25.7183 203.832C-25.3002 203.832 -24.9577 203.686 -24.6908 203.393C-24.4194 203.1 -24.217 202.667 -24.0836 202.094C-23.9502 201.521 -23.8834 200.819 -23.8834 199.987C-23.8834 199.15 -23.9502 198.446 -24.0836 197.873C-24.217 197.3 -24.4194 196.867 -24.6908 196.574C-24.9577 196.277 -25.3002 196.128 -25.7183 196.128C-26.1319 196.128 -26.4767 196.277 -26.7524 196.574C-27.0238 196.867 -27.2262 197.3 -27.3596 197.873C-27.493 198.446 -27.5598 199.15 -27.5598 199.987C-27.5598 200.823 -27.493 201.527 -27.3596 202.101C-27.2262 202.669 -27.0238 203.1 -26.7524 203.393C-26.4767 203.686 -26.1319 203.832 -25.7183 203.832Z" fill="black" fill-opacity="0.76"/>
<path d="M-18.3723 204.787C-18.9105 204.787 -19.3709 204.664 -19.7534 204.418C-20.1315 204.168 -20.4406 203.824 -20.6808 203.387C-20.9166 202.945 -21.09 202.434 -21.2012 201.852C-21.308 201.271 -21.3614 200.649 -21.3614 199.987C-21.3614 199.324 -21.308 198.703 -21.2012 198.121C-21.09 197.535 -20.9166 197.022 -20.6808 196.58C-20.4406 196.134 -20.1315 195.786 -19.7534 195.536C-19.3709 195.281 -18.9105 195.154 -18.3723 195.154C-17.834 195.154 -17.3759 195.281 -16.9978 195.536C-16.6153 195.786 -16.3061 196.134 -16.0704 196.58C-15.8346 197.022 -15.6612 197.535 -15.55 198.121C-15.4388 198.703 -15.3832 199.324 -15.3832 199.987C-15.3832 200.649 -15.4388 201.271 -15.55 201.852C-15.6612 202.434 -15.8346 202.945 -16.0704 203.387C-16.3061 203.824 -16.6153 204.168 -16.9978 204.418C-17.3759 204.664 -17.834 204.787 -18.3723 204.787ZM-18.3723 203.832C-17.9541 203.832 -17.6116 203.686 -17.3448 203.393C-17.0734 203.1 -16.871 202.667 -16.7376 202.094C-16.6042 201.521 -16.5374 200.819 -16.5374 199.987C-16.5374 199.15 -16.6042 198.446 -16.7376 197.873C-16.871 197.3 -17.0734 196.867 -17.3448 196.574C-17.6116 196.277 -17.9541 196.128 -18.3723 196.128C-18.7859 196.128 -19.1307 196.277 -19.4064 196.574C-19.6778 196.867 -19.8802 197.3 -20.0136 197.873C-20.147 198.446 -20.2138 199.15 -20.2138 199.987C-20.2138 200.823 -20.147 201.527 -20.0136 202.101C-19.8802 202.669 -19.6778 203.1 -19.4064 203.393C-19.1307 203.686 -18.7859 203.832 -18.3723 203.832Z" fill="black" fill-opacity="0.76"/>
<path d="M-11.0263 204.787C-11.5645 204.787 -12.0248 204.664 -12.4074 204.418C-12.7855 204.168 -13.0946 203.824 -13.3348 203.387C-13.5706 202.945 -13.744 202.434 -13.8552 201.852C-13.962 201.271 -14.0154 200.649 -14.0154 199.987C-14.0154 199.324 -13.962 198.703 -13.8552 198.121C-13.744 197.535 -13.5706 197.022 -13.3348 196.58C-13.0946 196.134 -12.7855 195.786 -12.4074 195.536C-12.0248 195.281 -11.5645 195.154 -11.0263 195.154C-10.488 195.154 -10.0299 195.281 -9.65181 195.536C-9.26927 195.786 -8.96013 196.134 -8.72438 196.58C-8.48863 197.022 -8.31516 197.535 -8.20396 198.121C-8.09276 198.703 -8.03716 199.324 -8.03716 199.987C-8.03716 200.649 -8.09276 201.271 -8.20396 201.852C-8.31516 202.434 -8.48863 202.945 -8.72438 203.387C-8.96013 203.824 -9.26927 204.168 -9.65181 204.418C-10.0299 204.664 -10.488 204.787 -11.0263 204.787ZM-11.0263 203.832C-10.6081 203.832 -10.2656 203.686 -9.99875 203.393C-9.72742 203.1 -9.52504 202.667 -9.39159 202.094C-9.25815 201.521 -9.19143 200.819 -9.19143 199.987C-9.19143 199.15 -9.25815 198.446 -9.39159 197.873C-9.52504 197.3 -9.72742 196.867 -9.99875 196.574C-10.2656 196.277 -10.6081 196.128 -11.0263 196.128C-11.4399 196.128 -11.7847 196.277 -12.0604 196.574C-12.3318 196.867 -12.5342 197.3 -12.6676 197.873C-12.801 198.446 -12.8678 199.15 -12.8678 199.987C-12.8678 200.823 -12.801 201.527 -12.6676 202.101C-12.5342 202.669 -12.3318 203.1 -12.0604 203.393C-11.7847 203.686 -11.4399 203.832 -11.0263 203.832Z" fill="black" fill-opacity="0.76"/>
<path d="M-3.68025 204.787C-4.21846 204.787 -4.67884 204.664 -5.06137 204.418C-5.43946 204.168 -5.7486 203.824 -5.9888 203.387C-6.22454 202.945 -6.39802 202.434 -6.50922 201.852C-6.61597 201.271 -6.66935 200.649 -6.66935 199.987C-6.66935 199.324 -6.61597 198.703 -6.50922 198.121C-6.39802 197.535 -6.22454 197.022 -5.9888 196.58C-5.7486 196.134 -5.43946 195.786 -5.06137 195.536C-4.67884 195.281 -4.21846 195.154 -3.68025 195.154C-3.14203 195.154 -2.68389 195.281 -2.3058 195.536C-1.92327 195.786 -1.61412 196.134 -1.37838 196.58C-1.14263 197.022 -0.969154 197.535 -0.857952 198.121C-0.74675 198.703 -0.691151 199.324 -0.691151 199.987C-0.691151 200.649 -0.74675 201.271 -0.857952 201.852C-0.969154 202.434 -1.14263 202.945 -1.37838 203.387C-1.61412 203.824 -1.92327 204.168 -2.3058 204.418C-2.68389 204.664 -3.14203 204.787 -3.68025 204.787ZM-3.68025 203.832C-3.26213 203.832 -2.91963 203.686 -2.65274 203.393C-2.38141 203.1 -2.17902 202.667 -2.04558 202.094C-1.91214 201.521 -1.84542 200.819 -1.84542 199.987C-1.84542 199.15 -1.91214 198.446 -2.04558 197.873C-2.17902 197.3 -2.38141 196.867 -2.65274 196.574C-2.91963 196.277 -3.26213 196.128 -3.68025 196.128C-4.09392 196.128 -4.43865 196.277 -4.71443 196.574C-4.98576 196.867 -5.18814 197.3 -5.32158 197.873C-5.45502 198.446 -5.52175 199.15 -5.52175 199.987C-5.52175 200.823 -5.45502 201.527 -5.32158 202.101C-5.18814 202.669 -4.98576 203.1 -4.71443 203.393C-4.43865 203.686 -4.09392 203.832 -3.68025 203.832Z" fill="black" fill-opacity="0.76"/>
<path d="M-30.8595 159.762V169.186H-31.9937V160.94C-32.0293 160.987 -32.1405 161.048 -32.3273 161.125C-32.5097 161.201 -32.7365 161.275 -33.0079 161.348C-33.2748 161.416 -33.5594 161.464 -33.8619 161.494V160.514C-33.5639 160.467 -33.2837 160.401 -33.0212 160.316C-32.7543 160.231 -32.5275 160.14 -32.3407 160.042C-32.1538 159.941 -32.0293 159.847 -31.967 159.762H-30.8595Z" fill="black" fill-opacity="0.76"/>
<path d="M-23.0898 160.743H-26.9329L-27.2799 163.837C-27.2665 163.786 -27.222 163.718 -27.1464 163.633C-27.0663 163.549 -26.9507 163.462 -26.7995 163.372C-26.6438 163.283 -26.4503 163.209 -26.219 163.15C-25.9877 163.09 -25.7164 163.06 -25.405 163.06C-24.5954 163.06 -23.9816 163.336 -23.5635 163.888C-23.1409 164.44 -22.9296 165.168 -22.9296 166.072C-22.9296 166.768 -23.0431 167.358 -23.2699 167.842C-23.4923 168.326 -23.8148 168.693 -24.2374 168.944C-24.6599 169.19 -25.1715 169.313 -25.772 169.313C-26.2568 169.313 -26.6794 169.245 -27.0397 169.109C-27.3955 168.969 -27.6891 168.774 -27.9204 168.524C-28.1472 168.273 -28.3185 167.98 -28.4341 167.645C-28.5453 167.309 -28.6009 166.942 -28.6009 166.543C-28.6009 166.539 -28.6009 166.537 -28.6009 166.537C-28.6009 166.533 -28.6009 166.528 -28.6009 166.524H-27.4733C-27.4733 166.528 -27.4733 166.533 -27.4733 166.537C-27.4733 166.537 -27.4733 166.539 -27.4733 166.543C-27.4689 167.184 -27.3177 167.647 -27.0196 167.931C-26.7172 168.216 -26.2968 168.358 -25.7586 168.358C-25.4117 168.358 -25.1136 168.275 -24.8646 168.11C-24.611 167.944 -24.4175 167.694 -24.2841 167.358C-24.1462 167.023 -24.0772 166.601 -24.0772 166.091C-24.0772 165.412 -24.2085 164.896 -24.4709 164.544C-24.7289 164.192 -25.1092 164.016 -25.6118 164.016C-25.9365 164.016 -26.2212 164.077 -26.4659 164.2C-26.7105 164.319 -26.9129 164.465 -27.073 164.64C-27.2287 164.814 -27.3399 164.979 -27.4066 165.136L-28.5008 164.869L-27.8937 159.794H-23.0898V160.743Z" fill="black" fill-opacity="0.76"/>
<path d="M-18.3723 169.313C-18.9105 169.313 -19.3709 169.19 -19.7534 168.944C-20.1315 168.693 -20.4406 168.349 -20.6808 167.912C-20.9166 167.471 -21.09 166.959 -21.2012 166.378C-21.308 165.796 -21.3614 165.174 -21.3614 164.512C-21.3614 163.85 -21.308 163.228 -21.2012 162.647C-21.09 162.061 -20.9166 161.547 -20.6808 161.106C-20.4406 160.66 -20.1315 160.312 -19.7534 160.061C-19.3709 159.807 -18.9105 159.679 -18.3723 159.679C-17.834 159.679 -17.3759 159.807 -16.9978 160.061C-16.6153 160.312 -16.3061 160.66 -16.0704 161.106C-15.8346 161.547 -15.6612 162.061 -15.55 162.647C-15.4388 163.228 -15.3832 163.85 -15.3832 164.512C-15.3832 165.174 -15.4388 165.796 -15.55 166.378C-15.6612 166.959 -15.8346 167.471 -16.0704 167.912C-16.3061 168.349 -16.6153 168.693 -16.9978 168.944C-17.3759 169.19 -17.834 169.313 -18.3723 169.313ZM-18.3723 168.358C-17.9541 168.358 -17.6116 168.212 -17.3448 167.919C-17.0734 167.626 -16.871 167.193 -16.7376 166.62C-16.6042 166.047 -16.5374 165.344 -16.5374 164.512C-16.5374 163.676 -16.6042 162.971 -16.7376 162.398C-16.871 161.825 -17.0734 161.392 -17.3448 161.099C-17.6116 160.802 -17.9541 160.654 -18.3723 160.654C-18.7859 160.654 -19.1307 160.802 -19.4064 161.099C-19.6778 161.392 -19.8802 161.825 -20.0136 162.398C-20.147 162.971 -20.2138 163.676 -20.2138 164.512C-20.2138 165.348 -20.147 166.053 -20.0136 166.626C-19.8802 167.195 -19.6778 167.626 -19.4064 167.919C-19.1307 168.212 -18.7859 168.358 -18.3723 168.358Z" fill="black" fill-opacity="0.76"/>
<path d="M-11.0263 169.313C-11.5645 169.313 -12.0248 169.19 -12.4074 168.944C-12.7855 168.693 -13.0946 168.349 -13.3348 167.912C-13.5706 167.471 -13.744 166.959 -13.8552 166.378C-13.962 165.796 -14.0154 165.174 -14.0154 164.512C-14.0154 163.85 -13.962 163.228 -13.8552 162.647C-13.744 162.061 -13.5706 161.547 -13.3348 161.106C-13.0946 160.66 -12.7855 160.312 -12.4074 160.061C-12.0248 159.807 -11.5645 159.679 -11.0263 159.679C-10.488 159.679 -10.0299 159.807 -9.65181 160.061C-9.26927 160.312 -8.96013 160.66 -8.72438 161.106C-8.48863 161.547 -8.31516 162.061 -8.20396 162.647C-8.09276 163.228 -8.03716 163.85 -8.03716 164.512C-8.03716 165.174 -8.09276 165.796 -8.20396 166.378C-8.31516 166.959 -8.48863 167.471 -8.72438 167.912C-8.96013 168.349 -9.26927 168.693 -9.65181 168.944C-10.0299 169.19 -10.488 169.313 -11.0263 169.313ZM-11.0263 168.358C-10.6081 168.358 -10.2656 168.212 -9.99875 167.919C-9.72742 167.626 -9.52504 167.193 -9.39159 166.62C-9.25815 166.047 -9.19143 165.344 -9.19143 164.512C-9.19143 163.676 -9.25815 162.971 -9.39159 162.398C-9.52504 161.825 -9.72742 161.392 -9.99875 161.099C-10.2656 160.802 -10.6081 160.654 -11.0263 160.654C-11.4399 160.654 -11.7847 160.802 -12.0604 161.099C-12.3318 161.392 -12.5342 161.825 -12.6676 162.398C-12.801 162.971 -12.8678 163.676 -12.8678 164.512C-12.8678 165.348 -12.801 166.053 -12.6676 166.626C-12.5342 167.195 -12.3318 167.626 -12.0604 167.919C-11.7847 168.212 -11.4399 168.358 -11.0263 168.358Z" fill="black" fill-opacity="0.76"/>
<path d="M-3.68025 169.313C-4.21846 169.313 -4.67884 169.19 -5.06137 168.944C-5.43946 168.693 -5.7486 168.349 -5.9888 167.912C-6.22454 167.471 -6.39802 166.959 -6.50922 166.378C-6.61597 165.796 -6.66935 165.174 -6.66935 164.512C-6.66935 163.85 -6.61597 163.228 -6.50922 162.647C-6.39802 162.061 -6.22454 161.547 -5.9888 161.106C-5.7486 160.66 -5.43946 160.312 -5.06137 160.061C-4.67884 159.807 -4.21846 159.679 -3.68025 159.679C-3.14203 159.679 -2.68389 159.807 -2.3058 160.061C-1.92327 160.312 -1.61412 160.66 -1.37838 161.106C-1.14263 161.547 -0.969154 162.061 -0.857952 162.647C-0.74675 163.228 -0.691151 163.85 -0.691151 164.512C-0.691151 165.174 -0.74675 165.796 -0.857952 166.378C-0.969154 166.959 -1.14263 167.471 -1.37838 167.912C-1.61412 168.349 -1.92327 168.693 -2.3058 168.944C-2.68389 169.19 -3.14203 169.313 -3.68025 169.313ZM-3.68025 168.358C-3.26213 168.358 -2.91963 168.212 -2.65274 167.919C-2.38141 167.626 -2.17902 167.193 -2.04558 166.62C-1.91214 166.047 -1.84542 165.344 -1.84542 164.512C-1.84542 163.676 -1.91214 162.971 -2.04558 162.398C-2.17902 161.825 -2.38141 161.392 -2.65274 161.099C-2.91963 160.802 -3.26213 160.654 -3.68025 160.654C-4.09392 160.654 -4.43865 160.802 -4.71443 161.099C-4.98576 161.392 -5.18814 161.825 -5.32158 162.398C-5.45502 162.971 -5.52175 163.676 -5.52175 164.512C-5.52175 165.348 -5.45502 166.053 -5.32158 166.626C-5.18814 167.195 -4.98576 167.626 -4.71443 167.919C-4.43865 168.212 -4.09392 168.358 -3.68025 168.358Z" fill="black" fill-opacity="0.76"/>
<path d="M-35.9666 134.621V133.685C-35.9311 133.494 -35.8265 133.275 -35.6531 133.029C-35.4796 132.779 -35.2661 132.518 -35.0125 132.246C-34.759 131.974 -34.4921 131.707 -34.2119 131.444C-33.9272 131.176 -33.6603 130.93 -33.4112 130.705C-33.0999 130.425 -32.7952 130.134 -32.4971 129.833C-32.1947 129.527 -31.9434 129.204 -31.7432 128.865C-31.543 128.525 -31.443 128.169 -31.443 127.795C-31.443 127.239 -31.5786 126.815 -31.85 126.522C-32.1213 126.229 -32.5283 126.082 -33.071 126.082C-33.5069 126.082 -33.856 126.169 -34.1185 126.343C-34.3809 126.518 -34.5699 126.762 -34.6856 127.076C-34.8012 127.39 -34.8591 127.757 -34.8591 128.177H-36C-36 127.57 -35.8932 127.038 -35.6797 126.579C-35.4662 126.116 -35.1415 125.758 -34.7056 125.503C-34.2697 125.244 -33.7204 125.115 -33.0576 125.115C-32.4482 125.115 -31.9389 125.229 -31.5297 125.458C-31.1205 125.683 -30.8136 125.998 -30.6089 126.401C-30.3999 126.804 -30.2954 127.271 -30.2954 127.802C-30.2954 128.15 -30.3643 128.487 -30.5022 128.814C-30.6356 129.137 -30.8113 129.444 -31.0293 129.737C-31.2472 130.026 -31.483 130.295 -31.7365 130.546C-31.9856 130.792 -32.2236 131.015 -32.4504 131.214C-32.8152 131.533 -33.1599 131.843 -33.4846 132.144C-33.8049 132.445 -34.074 132.723 -34.2919 132.978C-34.5055 133.233 -34.6344 133.451 -34.6789 133.634H-30.2286V134.621H-35.9666Z" fill="black" fill-opacity="0.76"/>
<path d="M-25.7183 134.748C-26.2565 134.748 -26.7169 134.625 -27.0994 134.379C-27.4775 134.128 -27.7866 133.785 -28.0268 133.347C-28.2626 132.906 -28.436 132.394 -28.5472 131.813C-28.654 131.231 -28.7074 130.61 -28.7074 129.947C-28.7074 129.285 -28.654 128.663 -28.5472 128.082C-28.436 127.496 -28.2626 126.982 -28.0268 126.541C-27.7866 126.095 -27.4775 125.747 -27.0994 125.497C-26.7169 125.242 -26.2565 125.115 -25.7183 125.115C-25.1801 125.115 -24.7219 125.242 -24.3438 125.497C-23.9613 125.747 -23.6521 126.095 -23.4164 126.541C-23.1807 126.982 -23.0072 127.496 -22.896 128.082C-22.7848 128.663 -22.7292 129.285 -22.7292 129.947C-22.7292 130.61 -22.7848 131.231 -22.896 131.813C-23.0072 132.394 -23.1807 132.906 -23.4164 133.347C-23.6521 133.785 -23.9613 134.128 -24.3438 134.379C-24.7219 134.625 -25.1801 134.748 -25.7183 134.748ZM-25.7183 133.793C-25.3002 133.793 -24.9577 133.647 -24.6908 133.354C-24.4194 133.061 -24.217 132.628 -24.0836 132.055C-23.9502 131.482 -23.8834 130.779 -23.8834 129.947C-23.8834 129.111 -23.9502 128.406 -24.0836 127.833C-24.217 127.26 -24.4194 126.827 -24.6908 126.535C-24.9577 126.237 -25.3002 126.089 -25.7183 126.089C-26.1319 126.089 -26.4767 126.237 -26.7524 126.535C-27.0238 126.827 -27.2262 127.26 -27.3596 127.833C-27.493 128.406 -27.5598 129.111 -27.5598 129.947C-27.5598 130.784 -27.493 131.488 -27.3596 132.061C-27.2262 132.63 -27.0238 133.061 -26.7524 133.354C-26.4767 133.647 -26.1319 133.793 -25.7183 133.793Z" fill="black" fill-opacity="0.76"/>
<path d="M-18.3723 134.748C-18.9105 134.748 -19.3709 134.625 -19.7534 134.379C-20.1315 134.128 -20.4406 133.785 -20.6808 133.347C-20.9166 132.906 -21.09 132.394 -21.2012 131.813C-21.308 131.231 -21.3614 130.61 -21.3614 129.947C-21.3614 129.285 -21.308 128.663 -21.2012 128.082C-21.09 127.496 -20.9166 126.982 -20.6808 126.541C-20.4406 126.095 -20.1315 125.747 -19.7534 125.497C-19.3709 125.242 -18.9105 125.115 -18.3723 125.115C-17.834 125.115 -17.3759 125.242 -16.9978 125.497C-16.6153 125.747 -16.3061 126.095 -16.0704 126.541C-15.8346 126.982 -15.6612 127.496 -15.55 128.082C-15.4388 128.663 -15.3832 129.285 -15.3832 129.947C-15.3832 130.61 -15.4388 131.231 -15.55 131.813C-15.6612 132.394 -15.8346 132.906 -16.0704 133.347C-16.3061 133.785 -16.6153 134.128 -16.9978 134.379C-17.3759 134.625 -17.834 134.748 -18.3723 134.748ZM-18.3723 133.793C-17.9541 133.793 -17.6116 133.647 -17.3448 133.354C-17.0734 133.061 -16.871 132.628 -16.7376 132.055C-16.6042 131.482 -16.5374 130.779 -16.5374 129.947C-16.5374 129.111 -16.6042 128.406 -16.7376 127.833C-16.871 127.26 -17.0734 126.827 -17.3448 126.535C-17.6116 126.237 -17.9541 126.089 -18.3723 126.089C-18.7859 126.089 -19.1307 126.237 -19.4064 126.535C-19.6778 126.827 -19.8802 127.26 -20.0136 127.833C-20.147 128.406 -20.2138 129.111 -20.2138 129.947C-20.2138 130.784 -20.147 131.488 -20.0136 132.061C-19.8802 132.63 -19.6778 133.061 -19.4064 133.354C-19.1307 133.647 -18.7859 133.793 -18.3723 133.793Z" fill="black" fill-opacity="0.76"/>
<path d="M-11.0263 134.748C-11.5645 134.748 -12.0248 134.625 -12.4074 134.379C-12.7855 134.128 -13.0946 133.785 -13.3348 133.347C-13.5706 132.906 -13.744 132.394 -13.8552 131.813C-13.962 131.231 -14.0154 130.61 -14.0154 129.947C-14.0154 129.285 -13.962 128.663 -13.8552 128.082C-13.744 127.496 -13.5706 126.982 -13.3348 126.541C-13.0946 126.095 -12.7855 125.747 -12.4074 125.497C-12.0248 125.242 -11.5645 125.115 -11.0263 125.115C-10.488 125.115 -10.0299 125.242 -9.65181 125.497C-9.26927 125.747 -8.96013 126.095 -8.72438 126.541C-8.48863 126.982 -8.31516 127.496 -8.20396 128.082C-8.09276 128.663 -8.03716 129.285 -8.03716 129.947C-8.03716 130.61 -8.09276 131.231 -8.20396 131.813C-8.31516 132.394 -8.48863 132.906 -8.72438 133.347C-8.96013 133.785 -9.26927 134.128 -9.65181 134.379C-10.0299 134.625 -10.488 134.748 -11.0263 134.748ZM-11.0263 133.793C-10.6081 133.793 -10.2656 133.647 -9.99875 133.354C-9.72742 133.061 -9.52504 132.628 -9.39159 132.055C-9.25815 131.482 -9.19143 130.779 -9.19143 129.947C-9.19143 129.111 -9.25815 128.406 -9.39159 127.833C-9.52504 127.26 -9.72742 126.827 -9.99875 126.535C-10.2656 126.237 -10.6081 126.089 -11.0263 126.089C-11.4399 126.089 -11.7847 126.237 -12.0604 126.535C-12.3318 126.827 -12.5342 127.26 -12.6676 127.833C-12.801 128.406 -12.8678 129.111 -12.8678 129.947C-12.8678 130.784 -12.801 131.488 -12.6676 132.061C-12.5342 132.63 -12.3318 133.061 -12.0604 133.354C-11.7847 133.647 -11.4399 133.793 -11.0263 133.793Z" fill="black" fill-opacity="0.76"/>
<path d="M-3.68025 134.748C-4.21846 134.748 -4.67884 134.625 -5.06137 134.379C-5.43946 134.128 -5.7486 133.785 -5.9888 133.347C-6.22454 132.906 -6.39802 132.394 -6.50922 131.813C-6.61597 131.231 -6.66935 130.61 -6.66935 129.947C-6.66935 129.285 -6.61597 128.663 -6.50922 128.082C-6.39802 127.496 -6.22454 126.982 -5.9888 126.541C-5.7486 126.095 -5.43946 125.747 -5.06137 125.497C-4.67884 125.242 -4.21846 125.115 -3.68025 125.115C-3.14203 125.115 -2.68389 125.242 -2.3058 125.497C-1.92327 125.747 -1.61412 126.095 -1.37838 126.541C-1.14263 126.982 -0.969154 127.496 -0.857952 128.082C-0.74675 128.663 -0.691151 129.285 -0.691151 129.947C-0.691151 130.61 -0.74675 131.231 -0.857952 131.813C-0.969154 132.394 -1.14263 132.906 -1.37838 133.347C-1.61412 133.785 -1.92327 134.128 -2.3058 134.379C-2.68389 134.625 -3.14203 134.748 -3.68025 134.748ZM-3.68025 133.793C-3.26213 133.793 -2.91963 133.647 -2.65274 133.354C-2.38141 133.061 -2.17902 132.628 -2.04558 132.055C-1.91214 131.482 -1.84542 130.779 -1.84542 129.947C-1.84542 129.111 -1.91214 128.406 -2.04558 127.833C-2.17902 127.26 -2.38141 126.827 -2.65274 126.535C-2.91963 126.237 -3.26213 126.089 -3.68025 126.089C-4.09392 126.089 -4.43865 126.237 -4.71443 126.535C-4.98576 126.827 -5.18814 127.26 -5.32158 127.833C-5.45502 128.406 -5.52175 129.111 -5.52175 129.947C-5.52175 130.784 -5.45502 131.488 -5.32158 132.061C-5.18814 132.63 -4.98576 133.061 -4.71443 133.354C-4.43865 133.647 -4.09392 133.793 -3.68025 133.793Z" fill="black" fill-opacity="0.76"/>
<path d="M-35.9536 99.1464V98.2104C-35.918 98.0194 -35.8135 97.8008 -35.64 97.5546C-35.4665 97.3042 -35.253 97.0431 -34.9995 96.7714C-34.746 96.4998 -34.4791 96.2324 -34.1988 95.9692C-33.9142 95.7018 -33.6473 95.4556 -33.3982 95.2306C-33.0868 94.9504 -32.7821 94.6597 -32.4841 94.3583C-32.1816 94.0527 -31.9303 93.73 -31.7302 93.3905C-31.53 93.0509 -31.4299 92.6943 -31.4299 92.3208C-31.4299 91.7647 -31.5656 91.3402 -31.8369 91.0473C-32.1083 90.7544 -32.5153 90.608 -33.0579 90.608C-33.4938 90.608 -33.843 90.695 -34.1054 90.869C-34.3679 91.0431 -34.5569 91.2872 -34.6726 91.6013C-34.7882 91.9154 -34.846 92.2826 -34.846 92.7028H-35.987C-35.987 92.0958 -35.8802 91.5631 -35.6667 91.1046C-35.4532 90.6419 -35.1285 90.2833 -34.6926 90.0286C-34.2567 89.7696 -33.7073 89.6402 -33.0446 89.6402C-32.4352 89.6402 -31.9259 89.7548 -31.5167 89.984C-31.1074 90.209 -30.8005 90.5231 -30.5959 90.9263C-30.3869 91.3296 -30.2823 91.7965 -30.2823 92.3271C-30.2823 92.6752 -30.3513 93.0127 -30.4892 93.3395C-30.6226 93.6621 -30.7983 93.9699 -31.0163 94.2628C-31.2342 94.5514 -31.47 94.821 -31.7235 95.0714C-31.9726 95.3176 -32.2106 95.5405 -32.4374 95.74C-32.8022 96.0583 -33.1469 96.3682 -33.4716 96.6696C-33.7918 96.971 -34.061 97.249 -34.2789 97.5037C-34.4924 97.7584 -34.6214 97.977 -34.6659 98.1595H-30.2156V99.1464H-35.9536Z" fill="black" fill-opacity="0.76"/>
<path d="M-23.0898 90.7035H-26.9329L-27.2799 93.798C-27.2665 93.747 -27.222 93.6791 -27.1464 93.5942C-27.0663 93.5093 -26.9507 93.4223 -26.7995 93.3332C-26.6438 93.244 -26.4503 93.1697 -26.219 93.1103C-25.9877 93.0509 -25.7164 93.0212 -25.405 93.0212C-24.5954 93.0212 -23.9816 93.2971 -23.5635 93.8489C-23.1409 94.4007 -22.9296 95.1287 -22.9296 96.0329C-22.9296 96.729 -23.0431 97.319 -23.2699 97.8029C-23.4923 98.2868 -23.8148 98.654 -24.2374 98.9045C-24.6599 99.1507 -25.1715 99.2738 -25.772 99.2738C-26.2568 99.2738 -26.6794 99.2058 -27.0397 99.07C-27.3955 98.9299 -27.6891 98.7347 -27.9204 98.4842C-28.1472 98.2338 -28.3185 97.9409 -28.4341 97.6056C-28.5453 97.2702 -28.6009 96.903 -28.6009 96.504C-28.6009 96.4998 -28.6009 96.4977 -28.6009 96.4977C-28.6009 96.4934 -28.6009 96.4892 -28.6009 96.4849H-27.4733C-27.4733 96.4892 -27.4733 96.4934 -27.4733 96.4977C-27.4733 96.4977 -27.4733 96.4998 -27.4733 96.504C-27.4689 97.145 -27.3177 97.6077 -27.0196 97.8921C-26.7172 98.1765 -26.2968 98.3187 -25.7586 98.3187C-25.4117 98.3187 -25.1136 98.2359 -24.8646 98.0704C-24.611 97.9048 -24.4175 97.6544 -24.2841 97.319C-24.1462 96.9837 -24.0772 96.5613 -24.0772 96.0519C-24.0772 95.3728 -24.2085 94.857 -24.4709 94.5047C-24.7289 94.1524 -25.1092 93.9762 -25.6118 93.9762C-25.9365 93.9762 -26.2212 94.0378 -26.4659 94.1609C-26.7105 94.2797 -26.9129 94.4262 -27.073 94.6002C-27.2287 94.7743 -27.3399 94.9398 -27.4066 95.0969L-28.5008 94.8294L-27.8937 89.7548H-23.0898V90.7035Z" fill="black" fill-opacity="0.76"/>
<path d="M-18.3723 99.2738C-18.9105 99.2738 -19.3709 99.1507 -19.7534 98.9045C-20.1315 98.654 -20.4406 98.3102 -20.6808 97.873C-20.9166 97.4315 -21.09 96.92 -21.2012 96.3385C-21.308 95.7569 -21.3614 95.1351 -21.3614 94.4729C-21.3614 93.8107 -21.308 93.1888 -21.2012 92.6073C-21.09 92.0215 -20.9166 91.5079 -20.6808 91.0664C-20.4406 90.6207 -20.1315 90.2727 -19.7534 90.0222C-19.3709 89.7675 -18.9105 89.6402 -18.3723 89.6402C-17.834 89.6402 -17.3759 89.7675 -16.9978 90.0222C-16.6153 90.2727 -16.3061 90.6207 -16.0704 91.0664C-15.8346 91.5079 -15.6612 92.0215 -15.55 92.6073C-15.4388 93.1888 -15.3832 93.8107 -15.3832 94.4729C-15.3832 95.1351 -15.4388 95.7569 -15.55 96.3385C-15.6612 96.92 -15.8346 97.4315 -16.0704 97.873C-16.3061 98.3102 -16.6153 98.654 -16.9978 98.9045C-17.3759 99.1507 -17.834 99.2738 -18.3723 99.2738ZM-18.3723 98.3187C-17.9541 98.3187 -17.6116 98.1722 -17.3448 97.8793C-17.0734 97.5864 -16.871 97.1535 -16.7376 96.5804C-16.6042 96.0074 -16.5374 95.3049 -16.5374 94.4729C-16.5374 93.6367 -16.6042 92.932 -16.7376 92.359C-16.871 91.7859 -17.0734 91.353 -17.3448 91.0601C-17.6116 90.7629 -17.9541 90.6144 -18.3723 90.6144C-18.7859 90.6144 -19.1307 90.7629 -19.4064 91.0601C-19.6778 91.353 -19.8802 91.7859 -20.0136 92.359C-20.147 92.932 -20.2138 93.6367 -20.2138 94.4729C-20.2138 95.3091 -20.147 96.0137 -20.0136 96.5868C-19.8802 97.1556 -19.6778 97.5864 -19.4064 97.8793C-19.1307 98.1722 -18.7859 98.3187 -18.3723 98.3187Z" fill="black" fill-opacity="0.76"/>
<path d="M-11.0263 99.2738C-11.5645 99.2738 -12.0248 99.1507 -12.4074 98.9045C-12.7855 98.654 -13.0946 98.3102 -13.3348 97.873C-13.5706 97.4315 -13.744 96.92 -13.8552 96.3385C-13.962 95.7569 -14.0154 95.1351 -14.0154 94.4729C-14.0154 93.8107 -13.962 93.1888 -13.8552 92.6073C-13.744 92.0215 -13.5706 91.5079 -13.3348 91.0664C-13.0946 90.6207 -12.7855 90.2727 -12.4074 90.0222C-12.0248 89.7675 -11.5645 89.6402 -11.0263 89.6402C-10.488 89.6402 -10.0299 89.7675 -9.65181 90.0222C-9.26927 90.2727 -8.96013 90.6207 -8.72438 91.0664C-8.48863 91.5079 -8.31516 92.0215 -8.20396 92.6073C-8.09276 93.1888 -8.03716 93.8107 -8.03716 94.4729C-8.03716 95.1351 -8.09276 95.7569 -8.20396 96.3385C-8.31516 96.92 -8.48863 97.4315 -8.72438 97.873C-8.96013 98.3102 -9.26927 98.654 -9.65181 98.9045C-10.0299 99.1507 -10.488 99.2738 -11.0263 99.2738ZM-11.0263 98.3187C-10.6081 98.3187 -10.2656 98.1722 -9.99875 97.8793C-9.72742 97.5864 -9.52504 97.1535 -9.39159 96.5804C-9.25815 96.0074 -9.19143 95.3049 -9.19143 94.4729C-9.19143 93.6367 -9.25815 92.932 -9.39159 92.359C-9.52504 91.7859 -9.72742 91.353 -9.99875 91.0601C-10.2656 90.7629 -10.6081 90.6144 -11.0263 90.6144C-11.4399 90.6144 -11.7847 90.7629 -12.0604 91.0601C-12.3318 91.353 -12.5342 91.7859 -12.6676 92.359C-12.801 92.932 -12.8678 93.6367 -12.8678 94.4729C-12.8678 95.3091 -12.801 96.0137 -12.6676 96.5868C-12.5342 97.1556 -12.3318 97.5864 -12.0604 97.8793C-11.7847 98.1722 -11.4399 98.3187 -11.0263 98.3187Z" fill="black" fill-opacity="0.76"/>
<path d="M-3.68025 99.2738C-4.21846 99.2738 -4.67884 99.1507 -5.06137 98.9045C-5.43946 98.654 -5.7486 98.3102 -5.9888 97.873C-6.22454 97.4315 -6.39802 96.92 -6.50922 96.3385C-6.61597 95.7569 -6.66935 95.1351 -6.66935 94.4729C-6.66935 93.8107 -6.61597 93.1888 -6.50922 92.6073C-6.39802 92.0215 -6.22454 91.5079 -5.9888 91.0664C-5.7486 90.6207 -5.43946 90.2727 -5.06137 90.0222C-4.67884 89.7675 -4.21846 89.6402 -3.68025 89.6402C-3.14203 89.6402 -2.68389 89.7675 -2.3058 90.0222C-1.92327 90.2727 -1.61412 90.6207 -1.37838 91.0664C-1.14263 91.5079 -0.969154 92.0215 -0.857952 92.6073C-0.74675 93.1888 -0.691151 93.8107 -0.691151 94.4729C-0.691151 95.1351 -0.74675 95.7569 -0.857952 96.3385C-0.969154 96.92 -1.14263 97.4315 -1.37838 97.873C-1.61412 98.3102 -1.92327 98.654 -2.3058 98.9045C-2.68389 99.1507 -3.14203 99.2738 -3.68025 99.2738ZM-3.68025 98.3187C-3.26213 98.3187 -2.91963 98.1722 -2.65274 97.8793C-2.38141 97.5864 -2.17902 97.1535 -2.04558 96.5804C-1.91214 96.0074 -1.84542 95.3049 -1.84542 94.4729C-1.84542 93.6367 -1.91214 92.932 -2.04558 92.359C-2.17902 91.7859 -2.38141 91.353 -2.65274 91.0601C-2.91963 90.7629 -3.26213 90.6144 -3.68025 90.6144C-4.09392 90.6144 -4.43865 90.7629 -4.71443 91.0601C-4.98576 91.353 -5.18814 91.7859 -5.32158 92.359C-5.45502 92.932 -5.52175 93.6367 -5.52175 94.4729C-5.52175 95.3091 -5.45502 96.0137 -5.32158 96.5868C-5.18814 97.1556 -4.98576 97.5864 -4.71443 97.8793C-4.43865 98.1722 -4.09392 98.3187 -3.68025 98.3187Z" fill="black" fill-opacity="0.76"/>
<path d="M-31.869 58.7247C-31.4776 58.7374 -31.164 58.8435 -30.9283 59.043C-30.6881 59.2425 -30.5146 59.5057 -30.4078 59.8326C-30.3011 60.1552 -30.2477 60.5117 -30.2477 60.9022C-30.2477 61.4498 -30.35 61.9422 -30.5546 62.3794C-30.7548 62.8166 -31.0639 63.1626 -31.4821 63.4173C-31.8957 63.672 -32.4228 63.7993 -33.0633 63.7993C-33.5927 63.7993 -34.0419 63.7314 -34.4111 63.5956C-34.7803 63.4597 -35.0805 63.2624 -35.3118 63.0034C-35.5387 62.7445 -35.7055 62.4304 -35.8122 62.0611C-35.919 61.6918 -35.9724 61.2758 -35.9724 60.8131C-35.9724 60.8089 -35.9724 60.8046 -35.9724 60.8004C-35.9724 60.7961 -35.9724 60.7919 -35.9724 60.7876H-34.8314C-34.8314 60.7919 -34.8314 60.7961 -34.8314 60.8004C-34.8314 60.8046 -34.8314 60.8089 -34.8314 60.8131C-34.8314 61.3437 -34.7603 61.7576 -34.6179 62.0547C-34.4756 62.3476 -34.2732 62.5535 -34.0108 62.6723C-33.7439 62.7869 -33.4236 62.8442 -33.05 62.8442C-32.5385 62.8442 -32.1359 62.6829 -31.8423 62.3603C-31.5443 62.0377 -31.3953 61.5432 -31.3953 60.8768C-31.3953 60.656 -31.4198 60.4459 -31.4687 60.2464C-31.5132 60.0427 -31.5977 59.8644 -31.7222 59.7116C-31.8423 59.5545 -32.0136 59.4314 -32.236 59.3423C-32.4584 59.2489 -32.7453 59.2022 -33.0967 59.2022H-33.4637V58.3172H-33.0967C-32.7542 58.3172 -32.474 58.2726 -32.256 58.1834C-32.0336 58.0901 -31.8601 57.9691 -31.7356 57.8205C-31.611 57.6677 -31.5243 57.4979 -31.4754 57.3111C-31.422 57.1201 -31.3953 56.927 -31.3953 56.7317C-31.3953 56.1672 -31.5421 55.7597 -31.8357 55.5092C-32.1292 55.2588 -32.5273 55.1335 -33.03 55.1335C-33.5771 55.1335 -34.0152 55.2715 -34.3444 55.5474C-34.6691 55.8233 -34.8314 56.32 -34.8314 57.0373H-35.9724C-35.9724 56.6129 -35.9145 56.2245 -35.7989 55.8721C-35.6788 55.5198 -35.4987 55.2163 -35.2585 54.9616C-35.0183 54.7069 -34.7158 54.5117 -34.3511 54.3759C-33.9819 54.2358 -33.5482 54.1657 -33.05 54.1657C-32.4139 54.1657 -31.8891 54.2761 -31.4754 54.4968C-31.0617 54.7176 -30.7548 55.0189 -30.5546 55.401C-30.35 55.7788 -30.2477 56.2054 -30.2477 56.6808C-30.2477 57.0289 -30.3011 57.3557 -30.4078 57.6613C-30.5146 57.967 -30.6881 58.2174 -30.9283 58.4127C-31.164 58.6037 -31.4776 58.7077 -31.869 58.7247Z" fill="black" fill-opacity="0.76"/>
<path d="M-25.7183 63.7993C-26.2565 63.7993 -26.7169 63.6762 -27.0994 63.43C-27.4775 63.1796 -27.7866 62.8357 -28.0268 62.3985C-28.2626 61.9571 -28.436 61.4456 -28.5472 60.864C-28.654 60.2825 -28.7074 59.6606 -28.7074 58.9984C-28.7074 58.3363 -28.654 57.7144 -28.5472 57.1329C-28.436 56.5471 -28.2626 56.0335 -28.0268 55.592C-27.7866 55.1463 -27.4775 54.7982 -27.0994 54.5478C-26.7169 54.2931 -26.2565 54.1657 -25.7183 54.1657C-25.1801 54.1657 -24.7219 54.2931 -24.3438 54.5478C-23.9613 54.7982 -23.6521 55.1463 -23.4164 55.592C-23.1807 56.0335 -23.0072 56.5471 -22.896 57.1329C-22.7848 57.7144 -22.7292 58.3363 -22.7292 58.9984C-22.7292 59.6606 -22.7848 60.2825 -22.896 60.864C-23.0072 61.4456 -23.1807 61.9571 -23.4164 62.3985C-23.6521 62.8357 -23.9613 63.1796 -24.3438 63.43C-24.7219 63.6762 -25.1801 63.7993 -25.7183 63.7993ZM-25.7183 62.8442C-25.3002 62.8442 -24.9577 62.6978 -24.6908 62.4049C-24.4194 62.112 -24.217 61.679 -24.0836 61.106C-23.9502 60.5329 -23.8834 59.8304 -23.8834 58.9984C-23.8834 58.1622 -23.9502 57.4576 -24.0836 56.8845C-24.217 56.3115 -24.4194 55.8785 -24.6908 55.5856C-24.9577 55.2885 -25.3002 55.1399 -25.7183 55.1399C-26.1319 55.1399 -26.4767 55.2885 -26.7524 55.5856C-27.0238 55.8785 -27.2262 56.3115 -27.3596 56.8845C-27.493 57.4576 -27.5598 58.1622 -27.5598 58.9984C-27.5598 59.8347 -27.493 60.5393 -27.3596 61.1124C-27.2262 61.6812 -27.0238 62.112 -26.7524 62.4049C-26.4767 62.6978 -26.1319 62.8442 -25.7183 62.8442Z" fill="black" fill-opacity="0.76"/>
<path d="M-18.3723 63.7993C-18.9105 63.7993 -19.3709 63.6762 -19.7534 63.43C-20.1315 63.1796 -20.4406 62.8357 -20.6808 62.3985C-20.9166 61.9571 -21.09 61.4456 -21.2012 60.864C-21.308 60.2825 -21.3614 59.6606 -21.3614 58.9984C-21.3614 58.3363 -21.308 57.7144 -21.2012 57.1329C-21.09 56.5471 -20.9166 56.0335 -20.6808 55.592C-20.4406 55.1463 -20.1315 54.7982 -19.7534 54.5478C-19.3709 54.2931 -18.9105 54.1657 -18.3723 54.1657C-17.834 54.1657 -17.3759 54.2931 -16.9978 54.5478C-16.6153 54.7982 -16.3061 55.1463 -16.0704 55.592C-15.8346 56.0335 -15.6612 56.5471 -15.55 57.1329C-15.4388 57.7144 -15.3832 58.3363 -15.3832 58.9984C-15.3832 59.6606 -15.4388 60.2825 -15.55 60.864C-15.6612 61.4456 -15.8346 61.9571 -16.0704 62.3985C-16.3061 62.8357 -16.6153 63.1796 -16.9978 63.43C-17.3759 63.6762 -17.834 63.7993 -18.3723 63.7993ZM-18.3723 62.8442C-17.9541 62.8442 -17.6116 62.6978 -17.3448 62.4049C-17.0734 62.112 -16.871 61.679 -16.7376 61.106C-16.6042 60.5329 -16.5374 59.8304 -16.5374 58.9984C-16.5374 58.1622 -16.6042 57.4576 -16.7376 56.8845C-16.871 56.3115 -17.0734 55.8785 -17.3448 55.5856C-17.6116 55.2885 -17.9541 55.1399 -18.3723 55.1399C-18.7859 55.1399 -19.1307 55.2885 -19.4064 55.5856C-19.6778 55.8785 -19.8802 56.3115 -20.0136 56.8845C-20.147 57.4576 -20.2138 58.1622 -20.2138 58.9984C-20.2138 59.8347 -20.147 60.5393 -20.0136 61.1124C-19.8802 61.6812 -19.6778 62.112 -19.4064 62.4049C-19.1307 62.6978 -18.7859 62.8442 -18.3723 62.8442Z" fill="black" fill-opacity="0.76"/>
<path d="M-11.0263 63.7993C-11.5645 63.7993 -12.0248 63.6762 -12.4074 63.43C-12.7855 63.1796 -13.0946 62.8357 -13.3348 62.3985C-13.5706 61.9571 -13.744 61.4456 -13.8552 60.864C-13.962 60.2825 -14.0154 59.6606 -14.0154 58.9984C-14.0154 58.3363 -13.962 57.7144 -13.8552 57.1329C-13.744 56.5471 -13.5706 56.0335 -13.3348 55.592C-13.0946 55.1463 -12.7855 54.7982 -12.4074 54.5478C-12.0248 54.2931 -11.5645 54.1657 -11.0263 54.1657C-10.488 54.1657 -10.0299 54.2931 -9.65181 54.5478C-9.26927 54.7982 -8.96013 55.1463 -8.72438 55.592C-8.48863 56.0335 -8.31516 56.5471 -8.20396 57.1329C-8.09276 57.7144 -8.03716 58.3363 -8.03716 58.9984C-8.03716 59.6606 -8.09276 60.2825 -8.20396 60.864C-8.31516 61.4456 -8.48863 61.9571 -8.72438 62.3985C-8.96013 62.8357 -9.26927 63.1796 -9.65181 63.43C-10.0299 63.6762 -10.488 63.7993 -11.0263 63.7993ZM-11.0263 62.8442C-10.6081 62.8442 -10.2656 62.6978 -9.99875 62.4049C-9.72742 62.112 -9.52504 61.679 -9.39159 61.106C-9.25815 60.5329 -9.19143 59.8304 -9.19143 58.9984C-9.19143 58.1622 -9.25815 57.4576 -9.39159 56.8845C-9.52504 56.3115 -9.72742 55.8785 -9.99875 55.5856C-10.2656 55.2885 -10.6081 55.1399 -11.0263 55.1399C-11.4399 55.1399 -11.7847 55.2885 -12.0604 55.5856C-12.3318 55.8785 -12.5342 56.3115 -12.6676 56.8845C-12.801 57.4576 -12.8678 58.1622 -12.8678 58.9984C-12.8678 59.8347 -12.801 60.5393 -12.6676 61.1124C-12.5342 61.6812 -12.3318 62.112 -12.0604 62.4049C-11.7847 62.6978 -11.4399 62.8442 -11.0263 62.8442Z" fill="black" fill-opacity="0.76"/>
<path d="M-3.68025 63.7993C-4.21846 63.7993 -4.67884 63.6762 -5.06137 63.43C-5.43946 63.1796 -5.7486 62.8357 -5.9888 62.3985C-6.22454 61.9571 -6.39802 61.4456 -6.50922 60.864C-6.61597 60.2825 -6.66935 59.6606 -6.66935 58.9984C-6.66935 58.3363 -6.61597 57.7144 -6.50922 57.1329C-6.39802 56.5471 -6.22454 56.0335 -5.9888 55.592C-5.7486 55.1463 -5.43946 54.7982 -5.06137 54.5478C-4.67884 54.2931 -4.21846 54.1657 -3.68025 54.1657C-3.14203 54.1657 -2.68389 54.2931 -2.3058 54.5478C-1.92327 54.7982 -1.61412 55.1463 -1.37838 55.592C-1.14263 56.0335 -0.969154 56.5471 -0.857952 57.1329C-0.74675 57.7144 -0.691151 58.3363 -0.691151 58.9984C-0.691151 59.6606 -0.74675 60.2825 -0.857952 60.864C-0.969154 61.4456 -1.14263 61.9571 -1.37838 62.3985C-1.61412 62.8357 -1.92327 63.1796 -2.3058 63.43C-2.68389 63.6762 -3.14203 63.7993 -3.68025 63.7993ZM-3.68025 62.8442C-3.26213 62.8442 -2.91963 62.6978 -2.65274 62.4049C-2.38141 62.112 -2.17902 61.679 -2.04558 61.106C-1.91214 60.5329 -1.84542 59.8304 -1.84542 58.9984C-1.84542 58.1622 -1.91214 57.4576 -2.04558 56.8845C-2.17902 56.3115 -2.38141 55.8785 -2.65274 55.5856C-2.91963 55.2885 -3.26213 55.1399 -3.68025 55.1399C-4.09392 55.1399 -4.43865 55.2885 -4.71443 55.5856C-4.98576 55.8785 -5.18814 56.3115 -5.32158 56.8845C-5.45502 57.4576 -5.52175 58.1622 -5.52175 58.9984C-5.52175 59.8347 -5.45502 60.5393 -5.32158 61.1124C-5.18814 61.6812 -4.98576 62.112 -4.71443 62.4049C-4.43865 62.6978 -4.09392 62.8442 -3.68025 62.8442Z" fill="black" fill-opacity="0.76"/>
<path d="M92.6693 188.915C60.5054 188.915 17.6976 183.745 17.6976 183.745V231.934H217.083V150.967C147.215 154.816 124.833 188.915 92.6693 188.915Z" fill="url(#paint0_linear_808_553)"/>
<path d="M217.142 145.654C223.071 143.062 217.928 148.449 224.272 138.974C234.096 131.541 231.723 134.421 238.067 128.476C244.411 122.532 244.462 116.944 250.806 116.944C257.15 116.944 258.378 111.635 264.722 113.581C271.066 115.526 278.536 105.412 284.88 105.412C291.224 105.412 299.716 102.369 306.061 102.369C312.405 102.369 317.393 92.0241 323.737 96.8109C324.576 104.282 324.097 156.7 324.097 156.7L323.737 231.934C323.737 231.934 315.493 231.934 309.149 231.934C302.805 231.934 301.378 231.934 295.034 231.934C288.69 231.934 286.866 231.934 280.522 231.934C274.178 231.934 277.523 231.934 271.179 231.934C264.835 231.934 261.022 231.934 254.678 231.934C248.334 231.934 241.739 231.934 235.395 231.934C229.051 231.934 223.486 231.934 217.142 231.934C223.486 231.934 210.798 231.934 217.142 231.934C210.798 231.934 217.142 182.714 217.142 182.714V145.654Z" fill="url(#paint1_linear_808_553)" fill-opacity="0.65"/>
<path d="M168.52 13.5667V23.6496H166.647V15.3063C166.6 15.3518 166.473 15.4132 166.268 15.4905C166.068 15.5633 165.825 15.6338 165.539 15.702C165.258 15.7657 164.965 15.8111 164.66 15.8384V14.3785C164.965 14.3421 165.258 14.2785 165.539 14.1875C165.825 14.0965 166.071 13.9965 166.276 13.8873C166.481 13.7736 166.619 13.6668 166.69 13.5667H168.52Z" fill="black"/>
<path d="M178.876 13.5872L175.852 20.1704V23.6496H173.965V20.1704L170.962 13.5872H172.957L175.294 19.2221H174.536L176.867 13.5872H178.876Z" fill="black"/>
<path d="M199.064 14.9857H194.911L194.532 17.8509C194.546 17.8009 194.594 17.7349 194.675 17.6531C194.761 17.5712 194.882 17.4894 195.039 17.4075C195.201 17.3211 195.402 17.2483 195.64 17.1892C195.878 17.1301 196.155 17.1005 196.469 17.1005C197.394 17.1005 198.097 17.3961 198.578 17.9874C199.059 18.5786 199.3 19.354 199.3 20.3137C199.3 21.0686 199.169 21.7054 198.907 22.2238C198.645 22.7423 198.259 23.1357 197.749 23.404C197.239 23.6678 196.615 23.7997 195.876 23.7997C195.271 23.7997 194.751 23.7156 194.317 23.5473C193.889 23.3745 193.541 23.1425 193.274 22.8515C193.007 22.5558 192.811 22.2238 192.688 21.8554C192.564 21.4825 192.502 21.0959 192.502 20.6957C192.502 20.6912 192.502 20.6866 192.502 20.6821C192.502 20.6775 192.502 20.673 192.502 20.6684H194.367C194.367 20.673 194.367 20.6775 194.367 20.6821C194.367 20.6866 194.367 20.6912 194.367 20.6957C194.382 21.246 194.513 21.6621 194.761 21.9441C195.013 22.2261 195.394 22.3671 195.904 22.3671C196.228 22.3671 196.5 22.2943 196.719 22.1488C196.943 21.9987 197.113 21.7758 197.227 21.4802C197.346 21.1801 197.406 20.8026 197.406 20.3478C197.406 19.7429 197.291 19.2767 197.062 18.9493C196.839 18.6218 196.488 18.4581 196.012 18.4581C195.721 18.4581 195.466 18.5127 195.247 18.6218C195.028 18.7264 194.849 18.856 194.711 19.0107C194.572 19.1653 194.472 19.3154 194.41 19.4609L192.616 19.0243L193.374 13.5872H199.064V14.9857Z" fill="black"/>
<path d="M209.051 13.5872L206.027 20.1704V23.6496H204.14V20.1704L201.137 13.5872H203.132L205.469 19.2221H204.711L207.042 13.5872H209.051Z" fill="black"/>
<path d="M226.608 13.5667V23.6496H224.736V15.3063C224.688 15.3518 224.562 15.4132 224.357 15.4905C224.156 15.5633 223.913 15.6338 223.627 15.702C223.346 15.7657 223.053 15.8111 222.748 15.8384V14.3785C223.053 14.3421 223.346 14.2785 223.627 14.1875C223.913 14.0965 224.159 13.9965 224.364 13.8873C224.569 13.7736 224.707 13.6668 224.778 13.5667H226.608Z" fill="black"/>
<path d="M232.746 23.7997C232.108 23.7997 231.562 23.6633 231.109 23.3904C230.661 23.1175 230.297 22.7423 230.015 22.2648C229.739 21.7872 229.536 21.2392 229.408 20.6207C229.279 19.9976 229.215 19.3381 229.215 18.6423C229.215 17.9464 229.279 17.287 229.408 16.6639C229.536 16.0363 229.739 15.4814 230.015 14.9993C230.297 14.5172 230.661 14.1375 231.109 13.86C231.562 13.5826 232.108 13.4439 232.746 13.4439C233.385 13.4439 233.928 13.5826 234.376 13.86C234.829 14.1375 235.193 14.5172 235.47 14.9993C235.746 15.4814 235.949 16.0363 236.077 16.6639C236.211 17.287 236.278 17.9464 236.278 18.6423C236.278 19.3381 236.211 19.9976 236.077 20.6207C235.949 21.2392 235.746 21.7872 235.47 22.2648C235.193 22.7423 234.829 23.1175 234.376 23.3904C233.928 23.6633 233.385 23.7997 232.746 23.7997ZM232.746 22.3671C233.108 22.3671 233.409 22.2375 233.647 21.9782C233.885 21.7145 234.066 21.3074 234.19 20.7571C234.314 20.2068 234.376 19.5018 234.376 18.6423C234.376 17.7782 234.314 17.0709 234.19 16.5206C234.066 15.9703 233.885 15.5655 233.647 15.3063C233.409 15.0425 233.108 14.9106 232.746 14.9106C232.389 14.9106 232.088 15.0425 231.845 15.3063C231.602 15.5655 231.419 15.9703 231.295 16.5206C231.171 17.0709 231.109 17.7782 231.109 18.6423C231.109 19.5064 231.171 20.2136 231.295 20.7639C231.419 21.3097 231.602 21.7145 231.845 21.9782C232.088 22.2375 232.389 22.3671 232.746 22.3671Z" fill="black"/>
<path d="M245.789 13.5872L242.765 20.1704V23.6496H240.877V20.1704L237.875 13.5872H239.869L242.207 19.2221H241.449L243.78 13.5872H245.789Z" fill="black"/>
<path d="M255.092 23.6496L257.816 13.5735H260.789L263.492 23.6496H261.554L259.295 14.6855H259.31L257.029 23.6496H255.092ZM256.851 21.2005V19.7611H261.755V21.2005H256.851Z" fill="black"/>
<path d="M265.212 23.6496V13.5872H267.099V23.1107L266.249 22.1624H271.096V23.6496H265.212Z" fill="black"/>
<path d="M273.004 23.6496V13.5872H274.891V23.1107L274.04 22.1624H278.887V23.6496H273.004Z" fill="black"/>
<path d="M290.874 7.27681C290.874 3.25794 294.288 0 298.499 0H321.375C325.586 0 329 3.25794 329 7.27681V29.1072C329 33.1261 325.586 36.384 321.375 36.384H298.499C294.288 36.384 290.874 33.1261 290.874 29.1072V7.27681Z" fill="#EBECFE" fill-opacity="0.5"/>
<path d="M315.839 18.8573C315.871 18.5993 315.894 18.3413 315.894 18.0672C315.894 17.7931 315.871 17.5352 315.839 17.2772L317.515 15.947C317.666 15.8261 317.705 15.6084 317.61 15.4311L316.022 12.6418C315.926 12.4644 315.712 12.3999 315.537 12.4644L313.559 13.2706C313.146 12.9481 312.701 12.6821 312.217 12.4805L311.915 10.3442C311.891 10.1507 311.724 10.0056 311.526 10.0056H308.349C308.15 10.0056 307.983 10.1507 307.959 10.3442L307.658 12.4805C307.173 12.6821 306.728 12.9562 306.315 13.2706L304.337 12.4644C304.155 12.3918 303.948 12.4644 303.853 12.6418L302.264 15.4311C302.161 15.6084 302.209 15.8261 302.36 15.947L304.036 17.2772C304.004 17.5352 303.98 17.8012 303.98 18.0672C303.98 18.3333 304.004 18.5993 304.036 18.8573L302.36 20.1874C302.209 20.3084 302.169 20.526 302.264 20.7034L303.853 23.4927C303.948 23.67 304.163 23.7345 304.337 23.67L306.315 22.8639C306.728 23.1863 307.173 23.4524 307.658 23.6539L307.959 25.7902C307.983 25.9837 308.15 26.1288 308.349 26.1288H311.526C311.724 26.1288 311.891 25.9837 311.915 25.7902L312.217 23.6539C312.701 23.4524 313.146 23.1783 313.559 22.8639L315.537 23.67C315.72 23.7426 315.926 23.67 316.022 23.4927L317.61 20.7034C317.705 20.526 317.666 20.3084 317.515 20.1874L315.839 18.8573ZM309.937 20.8888C308.404 20.8888 307.157 19.6231 307.157 18.0672C307.157 16.5113 308.404 15.2457 309.937 15.2457C311.47 15.2457 312.717 16.5113 312.717 18.0672C312.717 19.6231 311.47 20.8888 309.937 20.8888Z" fill="black"/>

</svg>
