<svg width="20" height="20" viewBox="0 0 20 20" fill="none" xmlns="http://www.w3.org/2000/svg">
<path d="M1 8.53393C1 7.57062 1.46259 6.66591 2.24353 6.1019L8.24353 1.76856C9.29207 1.01128 10.7079 1.01128 11.7565 1.76856L17.7565 6.1019C18.5374 6.66591 19 7.57062 19 8.53393V17C19 18.1046 18.1046 19 17 19H12C11.4477 19 11 18.5523 11 18V15C11 14.4477 10.5523 14 10 14H7.25C6.69772 14 6.25 14.4477 6.25 15V18C6.25 18.5523 5.80228 19 5.25 19H3C1.89543 19 1 18.1046 1 17V8.53393Z" fill="white" stroke="#9FA5C0" stroke-width="1.6"/>
</svg>
