<svg width="13" height="21" viewBox="0 0 13 21" fill="none" xmlns="http://www.w3.org/2000/svg">
<path d="M10.499 6.61609H12.499C12.499 3.77909 9.74399 2.48509 7.49899 2.18709V0.116089H5.49899V2.18709C3.25399 2.48509 0.498993 3.77909 0.498993 6.61609C0.498993 9.32209 3.16499 10.7291 5.49899 11.0461V16.0161C4.05099 15.7651 2.49899 14.9921 2.49899 13.6161H0.498993C0.498993 16.2051 2.92399 17.7351 5.49899 18.0521V20.1161H7.49899V18.0461C9.74399 17.7481 12.499 16.4531 12.499 13.6161C12.499 10.7791 9.74399 9.48509 7.49899 9.18709V4.21609C8.82899 4.45509 10.499 5.15709 10.499 6.61609ZM2.49899 6.61609C2.49899 5.15709 4.16899 4.45509 5.49899 4.21609V9.01509C4.12799 8.76209 2.49899 8.01309 2.49899 6.61609ZM10.499 13.6161C10.499 15.0751 8.82899 15.7771 7.49899 16.0161V11.2161C8.82899 11.4551 10.499 12.1571 10.499 13.6161Z" fill="black"/>
</svg>
