<svg width="14" height="14" viewBox="0 0 14 14" fill="none" xmlns="http://www.w3.org/2000/svg">
<path d="M10.875 1.5C12.061 2.34689 12.9473 3.54859 13.4062 4.93177C13.865 6.31496 13.8727 7.80815 13.428 9.19597C12.9834 10.5838 12.1094 11.7945 10.9322 12.6535C9.75496 13.5125 8.33531 13.9754 6.878 13.9754C5.42069 13.9754 4.00104 13.5125 2.82381 12.6535C1.64658 11.7945 0.772615 10.5838 0.32797 9.19597C-0.116675 7.80815 -0.109019 6.31496 0.349835 4.93177C0.808689 3.54859 1.69502 2.34689 2.881 1.5C2.9572 1.44532 3.04407 1.40729 3.13595 1.3884C3.22782 1.36951 3.32265 1.37018 3.41424 1.39037C3.50584 1.41056 3.59216 1.44981 3.66759 1.50557C3.74301 1.56133 3.80584 1.63235 3.852 1.714L4.29 2.493C4.36939 2.63407 4.3946 2.79924 4.36091 2.95756C4.32722 3.11589 4.23694 3.25648 4.107 3.353C3.31887 3.93639 2.73485 4.75352 2.43807 5.68809C2.14129 6.62265 2.14687 7.62702 2.45402 8.55823C2.76118 9.48943 3.35424 10.3 4.14881 10.8746C4.94338 11.4492 5.89894 11.7585 6.8795 11.7585C7.86005 11.7585 8.81563 11.4492 9.61019 10.8746C10.4048 10.3 10.9978 9.48943 11.305 8.55823C11.6121 7.62702 11.6177 6.62265 11.3209 5.68809C11.0241 4.75352 10.4401 3.93639 9.652 3.353C9.52278 3.25658 9.43319 3.11631 9.40005 2.95852C9.36691 2.80073 9.3925 2.63627 9.472 2.496L9.91 1.717C9.95571 1.63572 10.018 1.56496 10.0928 1.50931C10.1677 1.45367 10.2534 1.41439 10.3444 1.39402C10.4354 1.37365 10.5297 1.37265 10.6211 1.39108C10.7125 1.40951 10.799 1.44696 10.875 1.501V1.5ZM7.99 7.323V0.666003C7.99026 0.578553 7.97325 0.491912 7.93994 0.411056C7.90662 0.330199 7.85767 0.25672 7.79587 0.194836C7.73408 0.132953 7.66068 0.083885 7.57987 0.0504498C7.49907 0.0170147 7.41245 -0.000129078 7.325 3.02143e-06H6.439C6.35147 -0.000261036 6.26474 0.0167853 6.18382 0.0501614C6.1029 0.0835375 6.02937 0.132585 5.96748 0.194481C5.90558 0.256378 5.85653 0.329902 5.82316 0.410824C5.78978 0.491746 5.77274 0.578469 5.773 0.666003V7.323C5.77274 7.41054 5.78978 7.49726 5.82316 7.57818C5.85653 7.6591 5.90558 7.73263 5.96748 7.79452C6.02937 7.85642 6.1029 7.90547 6.18382 7.93884C6.26474 7.97222 6.35147 7.98927 6.439 7.989H7.327C7.41428 7.98887 7.50068 7.97153 7.58126 7.93798C7.66183 7.90443 7.735 7.85532 7.79658 7.79346C7.85816 7.7316 7.90694 7.65821 7.94013 7.57749C7.97332 7.49676 7.99026 7.41028 7.99 7.323Z" fill="white"/>
</svg>
