<svg width="24" height="24" viewBox="0 0 24 24" fill="none" xmlns="http://www.w3.org/2000/svg">
<path d="M17 12C17 11.0111 16.7068 10.0444 16.1573 9.22215C15.6079 8.3999 14.827 7.75904 13.9134 7.3806C12.9998 7.00216 11.9945 6.90315 11.0245 7.09607C10.0546 7.289 9.16373 7.7652 8.46447 8.46447C7.7652 9.16373 7.289 10.0546 7.09607 11.0245C6.90315 11.9945 7.00216 12.9998 7.3806 13.9134C7.75904 14.827 8.3999 15.6079 9.22215 16.1573C10.0444 16.7068 11.0111 17 12 17C13.3256 16.9984 14.5964 16.4711 15.5338 15.5338C16.4711 14.5964 16.9984 13.3256 17 12V12ZM12 15C11.4067 15 10.8266 14.8241 10.3333 14.4944C9.83994 14.1648 9.45542 13.6962 9.22836 13.1481C9.0013 12.5999 8.94189 11.9967 9.05764 11.4147C9.1734 10.8328 9.45912 10.2982 9.87868 9.87868C10.2982 9.45912 10.8328 9.1734 11.4147 9.05764C11.9967 8.94189 12.5999 9.0013 13.1481 9.22836C13.6962 9.45542 14.1648 9.83994 14.4944 10.3333C14.8241 10.8266 15 11.4067 15 12C15 12.7956 14.6839 13.5587 14.1213 14.1213C13.5587 14.6839 12.7956 15 12 15ZM11 4V2C11 1.73478 11.1054 1.48043 11.2929 1.29289C11.4804 1.10536 11.7348 1 12 1C12.2652 1 12.5196 1.10536 12.7071 1.29289C12.8946 1.48043 13 1.73478 13 2V4C13 4.26522 12.8946 4.51957 12.7071 4.70711C12.5196 4.89464 12.2652 5 12 5C11.7348 5 11.4804 4.89464 11.2929 4.70711C11.1054 4.51957 11 4.26522 11 4ZM12 19C12.2652 19 12.5196 19.1054 12.7071 19.2929C12.8946 19.4804 13 19.7348 13 20V22C13 22.2652 12.8946 22.5196 12.7071 22.7071C12.5196 22.8946 12.2652 23 12 23C11.7348 23 11.4804 22.8946 11.2929 22.7071C11.1054 22.5196 11 22.2652 11 22V20C11 19.7348 11.1054 19.4804 11.2929 19.2929C11.4804 19.1054 11.7348 19 12 19V19ZM19.778 5.636L18.364 7.05C18.1754 7.23216 17.9228 7.33295 17.6606 7.33067C17.3984 7.3284 17.1476 7.22323 16.9622 7.03782C16.7768 6.85241 16.6716 6.6016 16.6693 6.3394C16.667 6.0772 16.7678 5.8246 16.95 5.636L18.364 4.222C18.5526 4.03984 18.8052 3.93905 19.0674 3.94133C19.3296 3.9436 19.5804 4.04877 19.7658 4.23418C19.9512 4.41959 20.0564 4.6704 20.0587 4.9326C20.061 5.1948 19.9602 5.4474 19.778 5.636V5.636ZM4.222 18.364L5.636 16.95C5.8246 16.7678 6.0772 16.667 6.3394 16.6693C6.6016 16.6716 6.85241 16.7768 7.03782 16.9622C7.22323 17.1476 7.3284 17.3984 7.33067 17.6606C7.33295 17.9228 7.23216 18.1754 7.05 18.364L5.636 19.778C5.4474 19.9602 5.1948 20.061 4.9326 20.0587C4.6704 20.0564 4.41959 19.9512 4.23418 19.7658C4.04877 19.5804 3.9436 19.3296 3.94133 19.0674C3.93905 18.8052 4.03984 18.5526 4.222 18.364V18.364ZM23 12C23 12.2652 22.8946 12.5196 22.7071 12.7071C22.5196 12.8946 22.2652 13 22 13H20C19.7348 13 19.4804 12.8946 19.2929 12.7071C19.1054 12.5196 19 12.2652 19 12C19 11.7348 19.1054 11.4804 19.2929 11.2929C19.4804 11.1054 19.7348 11 20 11H22C22.2652 11 22.5196 11.1054 22.7071 11.2929C22.8946 11.4804 23 11.7348 23 12ZM2 13C1.73478 13 1.48043 12.8946 1.29289 12.7071C1.10536 12.5196 1 12.2652 1 12C1 11.7348 1.10536 11.4804 1.29289 11.2929C1.48043 11.1054 1.73478 11 2 11H4C4.26522 11 4.51957 11.1054 4.70711 11.2929C4.89464 11.4804 5 11.7348 5 12C5 12.2652 4.89464 12.5196 4.70711 12.7071C4.51957 12.8946 4.26522 13 4 13H2ZM16.95 18.364C16.7678 18.1754 16.667 17.9228 16.6693 17.6606C16.6716 17.3984 16.7768 17.1476 16.9622 16.9622C17.1476 16.7768 17.3984 16.6716 17.6606 16.6693C17.9228 16.667 18.1754 16.7678 18.364 16.95L19.778 18.364C19.8735 18.4562 19.9497 18.5666 20.0021 18.6886C20.0545 18.8106 20.0821 18.9418 20.0833 19.0746C20.0844 19.2074 20.0591 19.3391 20.0088 19.462C19.9585 19.5849 19.8843 19.6965 19.7904 19.7904C19.6965 19.8843 19.5849 19.9585 19.462 20.0088C19.3391 20.0591 19.2074 20.0844 19.0746 20.0833C18.9418 20.0821 18.8106 20.0545 18.6886 20.0021C18.5666 19.9497 18.4562 19.8735 18.364 19.778L16.95 18.364ZM4.222 5.636C4.03984 5.4474 3.93905 5.1948 3.94133 4.9326C3.9436 4.6704 4.04877 4.41959 4.23418 4.23418C4.41959 4.04877 4.6704 3.9436 4.9326 3.94133C5.1948 3.93905 5.4474 4.03984 5.636 4.222L7.05 5.636C7.14551 5.72825 7.22169 5.83859 7.2741 5.9606C7.32651 6.0826 7.3541 6.21382 7.35525 6.3466C7.3564 6.47938 7.3311 6.61106 7.28082 6.73395C7.23054 6.85685 7.15629 6.9685 7.0624 7.0624C6.9685 7.15629 6.85685 7.23054 6.73395 7.28082C6.61106 7.3311 6.47938 7.3564 6.3466 7.35525C6.21382 7.3541 6.0826 7.32651 5.9606 7.2741C5.83859 7.22169 5.72825 7.14551 5.636 7.05L4.222 5.636Z" fill="black"/>
</svg>
