<svg width="24" height="24" viewBox="0 0 24 24" fill="none" xmlns="http://www.w3.org/2000/svg">
<path d="M11.9998 23C11.4694 23 10.9606 22.7893 10.5856 22.4142C10.2105 22.0391 9.99979 21.5304 9.99979 21H13.9998C13.9998 21.5304 13.7891 22.0391 13.414 22.4142C13.0389 22.7893 12.5302 23 11.9998 23ZM19.9998 6C19.9998 5.60444 19.8825 5.21776 19.6627 4.88886C19.443 4.55996 19.1306 4.30362 18.7652 4.15224C18.3997 4.00087 17.9976 3.96126 17.6096 4.03843C17.2216 4.1156 16.8653 4.30608 16.5856 4.58579C16.3059 4.86549 16.1154 5.22186 16.0382 5.60982C15.961 5.99778 16.0007 6.39991 16.152 6.76537C16.3034 7.13082 16.5597 7.44318 16.8886 7.66294C17.2175 7.8827 17.6042 8 17.9998 8C18.5302 8 19.0389 7.78929 19.414 7.41421C19.7891 7.03914 19.9998 6.53043 19.9998 6ZM20.7068 17.293L18.9998 15.586V10H16.9998V16C16.9998 16.2652 17.1052 16.5195 17.2928 16.707L17.5858 17H6.41379L6.70679 16.707C6.89434 16.5195 6.99973 16.2652 6.99979 16V10C6.99684 9.26535 7.15646 8.53915 7.46722 7.87346C7.77798 7.20777 8.23217 6.61908 8.79724 6.14959C9.36231 5.68011 10.0242 5.34146 10.7356 5.15792C11.447 4.97438 12.1901 4.9505 12.9118 5.088L14.4998 3.5C14.4475 3.46075 14.3912 3.42722 14.3318 3.4C13.8992 3.2514 13.453 3.14556 12.9998 3.084V2C12.9998 1.73478 12.8944 1.48043 12.7069 1.29289C12.5194 1.10536 12.265 1 11.9998 1C11.7346 1 11.4802 1.10536 11.2927 1.29289C11.1051 1.48043 10.9998 1.73478 10.9998 2V3.08C9.33519 3.32026 7.81274 4.15181 6.71097 5.42253C5.60919 6.69324 5.00176 8.31815 4.99979 10V15.586L3.29279 17.293C3.15298 17.4329 3.05777 17.611 3.0192 17.805C2.98064 17.9989 3.00044 18.2 3.07611 18.3827C3.15178 18.5654 3.27992 18.7215 3.44433 18.8314C3.60874 18.9413 3.80204 19 3.99979 19H19.9998C20.1975 19 20.3908 18.9413 20.5552 18.8314C20.7197 18.7215 20.8478 18.5654 20.9235 18.3827C20.9991 18.2 21.0189 17.9989 20.9804 17.805C20.9418 17.611 20.8466 17.4329 20.7068 17.293Z" fill="black"/>
</svg>
