<svg width="41" height="44" viewBox="0 0 41 44" fill="none" xmlns="http://www.w3.org/2000/svg">
<ellipse opacity="0.3" cx="20" cy="22.0426" rx="18" ry="18.1808" stroke="#1C1C28" stroke-width="4"/>
<g filter="url(#filter0_d_686_259)">
<path d="M40 22.0446C40 33.2013 31.0457 42.2455 20 42.2455C15.8914 42.2455 12.0666 40.992 8.88748 38.8426L11.1125 35.4851C13.6538 37.2033 16.708 38.2053 20 38.2053C28.8366 38.2053 36 30.9699 36 22.0446C36 13.9783 30.1491 7.29227 22.5 6.08001V2C32.3658 3.2426 40 11.7431 40 22.0446Z" fill="black"/>
<path d="M8.4707 38.5664L8.19703 38.9793L8.60743 39.2568C11.8664 41.4602 15.7882 42.7455 20 42.7455C31.3265 42.7455 40.5 33.4727 40.5 22.0446C40.5 11.4919 32.679 2.7781 22.5625 1.50392L22 1.43307V2V6.08001V6.50701L22.4217 6.57384C29.8281 7.74763 35.5 14.2244 35.5 22.0446C35.5 30.6985 28.5557 37.7053 20 37.7053C16.8112 37.7053 13.854 36.7351 11.3926 35.0709L10.9745 34.7883L10.6957 35.2089L8.4707 38.5664Z" stroke="#FAFAFC"/>
</g>
<path d="M14.817 28.1854C14.301 28.1854 13.851 28.0924 13.467 27.9064C13.083 27.7144 12.786 27.4564 12.576 27.1324C12.372 26.8024 12.27 26.4274 12.27 26.0074H13.89C13.89 26.2414 13.971 26.4334 14.133 26.5834C14.295 26.7274 14.523 26.7994 14.817 26.7994C15.015 26.7994 15.183 26.7634 15.321 26.6914C15.459 26.6134 15.564 26.5114 15.636 26.3854C15.708 26.2534 15.744 26.1064 15.744 25.9444C15.744 25.6984 15.663 25.4944 15.501 25.3324C15.345 25.1704 15.117 25.0894 14.817 25.0894C14.643 25.0894 14.487 25.1164 14.349 25.1704C14.217 25.2244 14.103 25.2934 14.007 25.3774L13.26 24.1354L15.078 23.0194L14.997 22.8754H12.549V21.4354H17.121V22.8664L14.754 24.3064L13.998 24.0274C14.124 23.9914 14.256 23.9644 14.394 23.9464C14.538 23.9284 14.685 23.9194 14.835 23.9194C15.351 23.9194 15.798 24.0004 16.176 24.1624C16.554 24.3244 16.845 24.5584 17.049 24.8644C17.259 25.1644 17.364 25.5244 17.364 25.9444V26.0524C17.364 26.4664 17.259 26.8354 17.049 27.1594C16.845 27.4774 16.551 27.7294 16.167 27.9154C15.789 28.0954 15.339 28.1854 14.817 28.1854ZM17.8833 28.5454L19.7553 20.9854H21.4473L19.5753 28.5454H17.8833ZM24.5499 28.1854C24.0219 28.1854 23.5629 28.0864 23.1729 27.8884C22.7889 27.6844 22.4919 27.4114 22.2819 27.0694C22.0719 26.7274 21.9669 26.3434 21.9669 25.9174H23.5869C23.5869 26.0974 23.6289 26.2534 23.7129 26.3854C23.7969 26.5174 23.9139 26.6194 24.0639 26.6914C24.2139 26.7634 24.3819 26.7994 24.5679 26.7994C24.7839 26.7994 24.9639 26.7544 25.1079 26.6644C25.2579 26.5744 25.3689 26.4514 25.4409 26.2954C25.5189 26.1394 25.5579 25.9624 25.5579 25.7644C25.5579 25.5664 25.5189 25.3894 25.4409 25.2334C25.3689 25.0774 25.2609 24.9544 25.1169 24.8644C24.9729 24.7744 24.7959 24.7294 24.5859 24.7294C24.3759 24.7294 24.1929 24.7774 24.0369 24.8734C23.8809 24.9634 23.7669 25.0774 23.6949 25.2154H22.1199L22.4529 21.4354H26.6199V22.8754H23.0649L23.7489 22.4704L23.5689 24.4594L23.1909 24.3694C23.3709 24.1414 23.5869 23.9464 23.8389 23.7844C24.0969 23.6224 24.4509 23.5414 24.9009 23.5414C25.3689 23.5414 25.7709 23.6374 26.1069 23.8294C26.4489 24.0154 26.7129 24.2734 26.8989 24.6034C27.0849 24.9274 27.1779 25.2994 27.1779 25.7194V25.8274C27.1779 26.2474 27.0759 26.6374 26.8719 26.9974C26.6679 27.3514 26.3709 27.6394 25.9809 27.8614C25.5909 28.0774 25.1139 28.1854 24.5499 28.1854Z" fill="#1C1C28"/>
<defs>
<filter id="filter0_d_686_259" x="7.50659" y="0.866211" width="33.4934" height="42.3794" filterUnits="userSpaceOnUse" color-interpolation-filters="sRGB">
<feFlood flood-opacity="0" result="BackgroundImageFix"/>
<feColorMatrix in="SourceAlpha" type="matrix" values="0 0 0 0 0 0 0 0 0 0 0 0 0 0 0 0 0 0 127 0" result="hardAlpha"/>
<feOffset/>
<feColorMatrix type="matrix" values="0 0 0 0 0.94902 0 0 0 0 0.368627 0 0 0 0 0.25098 0 0 0 1 0"/>
<feBlend mode="normal" in2="BackgroundImageFix" result="effect1_dropShadow_686_259"/>
<feBlend mode="normal" in="SourceGraphic" in2="effect1_dropShadow_686_259" result="shape"/>
</filter>
</defs>
</svg>
