<svg width="11" height="16" viewBox="0 0 11 16" fill="none" xmlns="http://www.w3.org/2000/svg">
<path d="M7.20663 12.5V15.5C7.20663 15.6333 7.15922 15.75 7.06439 15.85C6.96956 15.95 6.85893 16 6.73249 16H3.88766C3.76123 16 3.6506 15.95 3.55577 15.85C3.46094 15.75 3.41353 15.6333 3.41353 15.5V12.5C3.41353 12.3667 3.46094 12.25 3.55577 12.15C3.6506 12.05 3.76123 12 3.88766 12H6.73249C6.85893 12 6.96956 12.05 7.06439 12.15C7.15922 12.25 7.20663 12.3667 7.20663 12.5ZM10.9523 5C10.9523 5.45 10.8911 5.87083 10.7686 6.2625C10.6461 6.65417 10.5078 6.97292 10.3537 7.21875C10.1996 7.46458 9.98231 7.7125 9.70178 7.9625C9.42125 8.2125 9.19406 8.39375 9.02021 8.50625C8.84636 8.61875 8.60534 8.76667 8.29715 8.95C7.97315 9.14167 7.7025 9.4125 7.48519 9.7625C7.26787 10.1125 7.15922 10.3917 7.15922 10.6C7.15922 10.7417 7.1118 10.8771 7.01697 11.0063C6.92215 11.1354 6.81151 11.2 6.68508 11.2H3.84025C3.72172 11.2 3.62096 11.1229 3.53799 10.9688C3.45501 10.8146 3.41353 10.6583 3.41353 10.5V9.9375C3.41353 9.24583 3.67035 8.59375 4.184 7.98125C4.69765 7.36875 5.26266 6.91667 5.87904 6.625C6.34528 6.4 6.67718 6.16667 6.87473 5.925C7.07229 5.68333 7.17107 5.36667 7.17107 4.975C7.17107 4.625 6.98734 4.31667 6.61988 4.05C6.25243 3.78333 5.82768 3.65 5.34564 3.65C4.83199 3.65 4.40526 3.77083 4.06547 4.0125C3.78889 4.22083 3.36611 4.7 2.79715 5.45C2.69442 5.58333 2.57193 5.65 2.42969 5.65C2.33486 5.65 2.23608 5.61667 2.13335 5.55L0.189388 3.9875C0.086658 3.90417 0.0254152 3.8 0.00565945 3.675C-0.0140963 3.55 0.00763502 3.43333 0.0708534 3.325C1.33522 1.10833 3.16855 0 5.57085 0C6.20304 0 6.83917 0.129167 7.47926 0.3875C8.11934 0.645833 8.69621 0.991667 9.20986 1.425C9.72351 1.85833 10.1423 2.38958 10.4663 3.01875C10.7903 3.64792 10.9523 4.30833 10.9523 5Z" fill="black"/>
</svg>
