<svg width="24" height="24" viewBox="0 0 24 24" fill="none" xmlns="http://www.w3.org/2000/svg">
<path d="M11.9997 16C12.7908 16 13.5642 15.7654 14.222 15.3259C14.8798 14.8864 15.3925 14.2616 15.6952 13.5307C15.998 12.7998 16.0772 11.9956 15.9229 11.2196C15.7685 10.4437 15.3876 9.73098 14.8281 9.17157C14.2687 8.61216 13.556 8.2312 12.7801 8.07686C12.0042 7.92252 11.1999 8.00173 10.469 8.30448C9.73808 8.60723 9.11336 9.11992 8.67384 9.77772C8.23431 10.4355 7.99971 11.2089 7.99971 12C7.99971 13.0609 8.42114 14.0783 9.17129 14.8284C9.92143 15.5786 10.9388 16 11.9997 16ZM11.9997 10C12.3953 10 12.782 10.1173 13.1109 10.3371C13.4398 10.5568 13.6961 10.8692 13.8475 11.2346C13.9988 11.6001 14.0385 12.0022 13.9613 12.3902C13.8841 12.7781 13.6936 13.1345 13.4139 13.4142C13.1342 13.6939 12.7779 13.8844 12.3899 13.9616C12.0019 14.0387 11.5998 13.9991 11.2343 13.8478C10.8689 13.6964 10.5565 13.44 10.3368 13.1111C10.117 12.7822 9.99971 12.3956 9.99971 12C9.99971 11.4696 10.2104 10.9609 10.5855 10.5858C10.9606 10.2107 11.4693 10 11.9997 10V10ZM3.49971 12.877L2.49971 13.456C2.27218 13.5872 2.07274 13.762 1.91276 13.9703C1.75278 14.1787 1.63541 14.4165 1.56734 14.6702C1.49928 14.9239 1.48185 15.1885 1.51606 15.4489C1.55027 15.7093 1.63544 15.9605 1.76671 16.188L3.25571 18.766C3.38687 18.9939 3.56168 19.1937 3.77013 19.3539C3.97858 19.5142 4.21658 19.6317 4.47052 19.6999C4.72445 19.7681 4.98934 19.7855 5.25002 19.7512C5.5107 19.7169 5.76206 19.6315 5.98971 19.5L6.99971 18.916C7.15385 18.829 7.32821 18.7842 7.50519 18.7861C7.68217 18.7881 7.85551 18.8367 8.00771 18.927C8.15802 19.014 8.28285 19.139 8.36972 19.2894C8.45659 19.4398 8.50245 19.6103 8.50271 19.784V21C8.50271 21.5304 8.71343 22.0391 9.0885 22.4142C9.46357 22.7893 9.97228 23 10.5027 23H13.5027C14.0331 23 14.5419 22.7893 14.9169 22.4142C15.292 22.0391 15.5027 21.5304 15.5027 21V19.782C15.5054 19.6075 15.5533 19.4367 15.6417 19.2862C15.7301 19.1358 15.856 19.0108 16.0071 18.9236C16.1582 18.8363 16.3294 18.7898 16.5039 18.7884C16.6784 18.7871 16.8503 18.8311 17.0027 18.916L18.0117 19.498C18.4711 19.7632 19.017 19.8351 19.5293 19.6978C20.0417 19.5605 20.4785 19.2253 20.7437 18.766L22.2317 16.188C22.363 15.9605 22.4482 15.7093 22.4824 15.4489C22.5166 15.1885 22.4992 14.9239 22.4311 14.6702C22.363 14.4165 22.2456 14.1787 22.0857 13.9703C21.9257 13.762 21.7262 13.5872 21.4987 13.456L20.4987 12.877C20.3436 12.7867 20.2155 12.6565 20.1276 12.5001C20.0397 12.3436 19.9952 12.1664 19.9987 11.987C19.9991 11.8118 20.0454 11.6398 20.1332 11.4881C20.2209 11.3365 20.347 11.2106 20.4987 11.123L21.4987 10.544C21.7262 10.4128 21.9257 10.238 22.0857 10.0297C22.2456 9.82132 22.363 9.58352 22.4311 9.32982C22.4992 9.07613 22.5166 8.81151 22.4824 8.55108C22.4482 8.29065 22.363 8.03951 22.2317 7.812L20.7417 5.234C20.6106 5.00639 20.4358 4.80684 20.2275 4.64677C20.0193 4.48669 19.7815 4.36922 19.5278 4.30106C19.2741 4.23289 19.0094 4.21538 18.7489 4.24952C18.4885 4.28365 18.2373 4.36877 18.0097 4.5L16.9997 5.083C16.8472 5.16828 16.6752 5.21248 16.5005 5.21125C16.3258 5.21002 16.1545 5.1634 16.0032 5.07598C15.852 4.98856 15.726 4.86332 15.6378 4.71256C15.5495 4.5618 15.5019 4.39069 15.4997 4.216V3C15.4997 2.46957 15.289 1.96086 14.9139 1.58579C14.5389 1.21071 14.0301 1 13.4997 1H10.4997C9.96928 1 9.46057 1.21071 9.0855 1.58579C8.71043 1.96086 8.49971 2.46957 8.49971 3V4.294C8.49968 4.44408 8.46011 4.5915 8.38497 4.72141C8.30983 4.85132 8.20178 4.95914 8.07171 5.034L7.91771 5.123C7.78756 5.19699 7.64042 5.23589 7.49071 5.23589C7.341 5.23589 7.19386 5.19699 7.06371 5.123L5.98971 4.5C5.76222 4.36853 5.51105 4.28317 5.25056 4.24881C4.99006 4.21444 4.72535 4.23174 4.47154 4.29972C4.21774 4.3677 3.97981 4.48502 3.77137 4.64499C3.56292 4.80495 3.38804 5.00442 3.25671 5.232L1.76871 7.813C1.50374 8.27215 1.4319 8.81771 1.56897 9.3298C1.70604 9.84189 2.04081 10.2786 2.49971 10.544L3.49971 11.122C3.65467 11.2127 3.78267 11.3431 3.87055 11.4997C3.95842 11.6563 4.00301 11.8335 3.99971 12.013C3.99997 12.1883 3.95385 12.3606 3.86604 12.5123C3.77823 12.6641 3.65185 12.7899 3.49971 12.877V12.877ZM4.49971 9.39L3.49971 8.812L4.98971 6.234L6.06371 6.854C6.4973 7.10316 6.98864 7.23429 7.48871 7.23429C7.98879 7.23429 8.48013 7.10316 8.91371 6.854L9.06771 6.766C9.50195 6.51541 9.86277 6.15519 10.1141 5.72137C10.3654 5.28755 10.4984 4.79535 10.4997 4.294V3H13.4997V4.216C13.5018 4.74183 13.6417 5.25793 13.9054 5.71284C14.1692 6.16775 14.5476 6.54558 15.0029 6.80864C15.4582 7.0717 15.9745 7.21082 16.5003 7.21211C17.0261 7.2134 17.5431 7.07682 17.9997 6.816L19.0067 6.234L20.4997 8.812L19.4997 9.39C19.0444 9.65664 18.6667 10.0378 18.4043 10.4956C18.1419 10.9534 18.0038 11.4718 18.0038 11.9995C18.0038 12.5272 18.1419 13.0456 18.4043 13.5034C18.6667 13.9612 19.0444 14.3424 19.4997 14.609L20.4997 15.188L19.0117 17.766L17.9997 17.184C17.5431 16.9232 17.0261 16.7866 16.5003 16.7879C15.9745 16.7892 15.4582 16.9283 15.0029 17.1914C14.5476 17.4544 14.1692 17.8322 13.9054 18.2872C13.6417 18.7421 13.5018 19.2582 13.4997 19.784V21H10.4997V19.784C10.4982 19.2579 10.3587 18.7415 10.0951 18.2862C9.83153 17.8309 9.45306 17.4528 8.99756 17.1897C8.54206 16.9265 8.02546 16.7874 7.49939 16.7864C6.97332 16.7855 6.45621 16.9225 5.99971 17.184L4.99271 17.766L3.49971 15.188L4.49971 14.609C4.95505 14.3424 5.33269 13.9612 5.59512 13.5034C5.85754 13.0456 5.99561 12.5272 5.99561 11.9995C5.99561 11.4718 5.85754 10.9534 5.59512 10.4956C5.33269 10.0378 4.95505 9.65664 4.49971 9.39V9.39Z" fill="black"/>
</svg>
