<svg width="35" height="26" viewBox="0 0 35 26" fill="none" xmlns="http://www.w3.org/2000/svg">
<path d="M25.0816 9.60281C24.9924 9.25266 24.5999 9 24.1212 9H10.8278C10.3744 9 9.98367 9.25266 9.89477 9.60281L8.01864 17.1028C7.96241 17.3233 8.0349 17.5519 8.21562 17.7253C8.39633 17.8987 8.63975 18 8.92489 18H16.5097V19.5059H15.1033C14.3225 19.5059 13.6836 20.0095 13.6836 20.625C13.6836 20.8323 13.8967 21.0002 14.1596 21L20.793 20.9961C21.0554 20.9959 21.2684 20.828 21.2684 20.6211C21.2669 20.0039 20.6574 19.5 19.8724 19.5H18.4369V18H26.0485C26.3337 18 26.6036 17.8989 26.7844 17.7253C26.9652 17.5517 27.0376 17.3231 26.9814 17.1028L25.0816 9.60281ZM23.369 10.5L23.9399 12.75H21.0267L20.7347 10.5H23.369ZM19.2748 10.5L19.5608 12.75H15.4066L15.7001 10.5H19.2748ZM14.2411 10.5L13.9497 12.75H11.0389L11.6091 10.5H14.2411ZM10.0892 16.5L10.7517 13.875H13.8052L13.4621 16.5H10.0892ZM14.9249 16.5L15.263 13.875H19.714L20.0508 16.5H14.9249ZM21.5137 16.5L21.1718 13.875H24.2253L24.8877 16.5H21.5137Z" fill="#E1E3EC"/>
<path d="M16.625 4.36364H18.375V6.54545H16.625V4.36364ZM20.7935 3.78545L22.0316 2.75709L23.8875 4.29964L22.6502 5.328L20.7935 3.78545ZM11.1169 4.30036L12.9728 2.75636L14.21 3.78618L12.355 5.32873L11.1169 4.30036ZM9.625 0H12.25V1.45455H9.625V0ZM22.75 0H25.375V1.45455H22.75V0ZM17.5 3.63636C19.915 3.63636 21.875 2.00727 21.875 0H13.125C13.125 2.00727 15.085 3.63636 17.5 3.63636Z" fill="#E1E3EC"/>
</svg>
