<svg width="43" height="23" viewBox="0 0 43 23" fill="none" xmlns="http://www.w3.org/2000/svg">
<path d="M24.4849 2.10635C24.6224 2.19427 24.7286 2.33076 24.7864 2.49354C24.8441 2.65633 24.8499 2.83581 24.8029 3.00269L23.2075 8.696H26.0072C26.1445 8.69594 26.2789 8.74007 26.3938 8.82296C26.5086 8.90584 26.5988 9.02384 26.6532 9.16239C26.7077 9.30094 26.724 9.45398 26.7002 9.60262C26.6764 9.75125 26.6135 9.88897 26.5193 9.99878L19.015 18.7566C18.9061 18.8839 18.7612 18.9668 18.6039 18.9919C18.4466 19.0171 18.2861 18.983 18.1488 18.8951C18.0114 18.8073 17.9051 18.671 17.8473 18.5083C17.7895 18.3456 17.7835 18.1662 17.8304 17.9994L19.4272 12.3045H16.6275C16.4902 12.3046 16.3558 12.2605 16.2409 12.1776C16.1261 12.0947 16.0359 11.9767 15.9815 11.8381C15.927 11.6996 15.9107 11.5466 15.9345 11.3979C15.9583 11.2493 16.0212 11.1116 16.1154 11.0018L23.6183 2.24389C23.7271 2.11649 23.8721 2.03338 24.0295 2.00812C24.1869 1.98286 24.3474 2.01694 24.4849 2.10481V2.10635Z" fill="#E1E3EC"/>
<path d="M13.8137 4.3194H19.9083L18.5858 5.86481H13.8137C13.4406 5.86481 13.0828 6.02763 12.8189 6.31745C12.5551 6.60727 12.4069 7.00036 12.4069 7.41023V13.5919C12.4069 14.0018 12.5551 14.3948 12.8189 14.6847C13.0828 14.9745 13.4406 15.1373 13.8137 15.1373H17.1621L16.7288 16.6827H13.8137C13.0675 16.6827 12.3518 16.3571 11.8241 15.7774C11.2964 15.1978 11 14.4116 11 13.5919V7.41023C11 6.59049 11.2964 5.80432 11.8241 5.22468C12.3518 4.64504 13.0675 4.3194 13.8137 4.3194V4.3194Z" fill="#E1E3EC"/>
<path d="M13.8137 7.41023H17.2606L15.0912 9.94316C14.8673 10.2046 14.7017 10.5195 14.6075 10.8631C14.5133 11.2068 14.493 11.5698 14.5482 11.9235C14.6035 12.2772 14.7327 12.612 14.9258 12.9016C15.1189 13.1911 15.3706 13.4274 15.6609 13.5919H13.8137V7.41023ZM25.9058 4.3194L25.4725 5.86481H27.8824C28.2556 5.86481 28.6134 6.02763 28.8772 6.31745C29.1411 6.60727 29.2893 7.00036 29.2893 7.41023V13.5919C29.2893 14.0018 29.1411 14.3948 28.8772 14.6847C28.6134 14.9745 28.2556 15.1373 27.8824 15.1373H24.0501L22.7248 16.6827H27.8824C28.6287 16.6827 29.3444 16.3571 29.872 15.7774C30.3997 15.1978 30.6962 14.4116 30.6962 13.5919V7.41023C30.6962 6.59049 30.3997 5.80432 29.872 5.22468C29.3444 4.64504 28.6287 4.3194 27.8824 4.3194H25.9058Z" fill="#E1E3EC"/>
<rect x="29.6243" y="7" width="2.1438" height="7" rx="0.5" fill="#E1E3EC"/>
</svg>
