<svg width="24" height="24" viewBox="0 0 24 24" fill="none" xmlns="http://www.w3.org/2000/svg">
<path d="M4 23C4.26522 23 4.51957 22.8946 4.70711 22.7071C4.89464 22.5196 5 22.2652 5 22V20H7V22C7 22.2652 7.10536 22.5196 7.29289 22.7071C7.48043 22.8946 7.73478 23 8 23C8.26522 23 8.51957 22.8946 8.70711 22.7071C8.89464 22.5196 9 22.2652 9 22V20.228C9.66165 20.3437 10.3294 20.4212 11 20.46V22C11 22.2652 11.1054 22.5196 11.2929 22.7071C11.4804 22.8946 11.7348 23 12 23C12.2652 23 12.5196 22.8946 12.7071 22.7071C12.8946 22.5196 13 22.2652 13 22V20.46C13.6706 20.4212 14.3383 20.3437 15 20.228V22C15 22.2652 15.1054 22.5196 15.2929 22.7071C15.4804 22.8946 15.7348 23 16 23C16.2652 23 16.5196 22.8946 16.7071 22.7071C16.8946 22.5196 17 22.2652 17 22V20H19V22C19 22.2652 19.1054 22.5196 19.2929 22.7071C19.4804 22.8946 19.7348 23 20 23C20.2652 23 20.5196 22.8946 20.7071 22.7071C20.8946 22.5196 21 22.2652 21 22V13C21 12.8448 20.9639 12.6916 20.8944 12.5528C20.825 12.4139 20.7242 12.2931 20.6 12.2L17 9.5V8C16.9974 6.91375 16.7432 5.84286 16.2574 4.87129C15.7716 3.89971 15.0674 3.05385 14.2 2.4L12.6 1.2C12.4269 1.07018 12.2164 1 12 1C11.7836 1 11.5731 1.07018 11.4 1.2L9.8 2.4C8.93257 3.05385 8.22837 3.89971 7.74258 4.87129C7.25679 5.84286 7.00262 6.91375 7 8V9.5L3.4 12.2C3.2758 12.2931 3.175 12.4139 3.10557 12.5528C3.03614 12.6916 3 12.8448 3 13V22C3 22.2652 3.10536 22.5196 3.29289 22.7071C3.48043 22.8946 3.73478 23 4 23ZM17 12L19 13.5V18H17V12ZM9 8C9.00193 7.22412 9.1835 6.45922 9.53049 5.76524C9.87747 5.07127 10.3805 4.46707 11 4L12 3.25L13 4C13.6195 4.46707 14.1225 5.07127 14.4695 5.76524C14.8165 6.45922 14.9981 7.22412 15 8V18.2C14.3393 18.3244 13.6712 18.4056 13 18.443V16C13 15.7348 12.8946 15.4804 12.7071 15.2929C12.5196 15.1054 12.2652 15 12 15C11.7348 15 11.4804 15.1054 11.2929 15.2929C11.1054 15.4804 11 15.7348 11 16V18.442C10.3288 18.4049 9.66069 18.3241 9 18.2V8ZM5 13.5L7 12V18H5V13.5Z" fill="black"/>
</svg>
