<svg width="35" height="26" viewBox="0 0 35 26" fill="none" xmlns="http://www.w3.org/2000/svg">
<path d="M10.6266 1.31152H15.8766V3.06152H10.6266V1.31152ZM8.00159 4.81152H12.3766V6.56152H8.00159V4.81152ZM9.75159 15.3115H14.1266V17.0615H9.75159V15.3115Z" fill="black"/>
<path d="M26.5603 14.9703L24.5653 11.3828C24.4474 11.175 24.2891 10.9929 24.0997 10.8471C23.9104 10.7014 23.6939 10.5949 23.4628 10.534L21.1091 9.94776C21.0947 9.53969 20.9838 9.14086 20.7853 8.78401L24.2503 3.01776C24.8191 2.07276 24.5128 0.847758 23.5678 0.279008C23.1949 0.0583483 22.7604 -0.0353517 22.3297 0.0119819C21.899 0.0593156 21.4952 0.245127 21.1791 0.541508L18.1778 3.35026C17.8278 3.67401 17.6266 4.13776 17.6266 4.61901V7.59401C17.2153 7.74276 16.8478 7.98776 16.5503 8.31151H9.9966C9.51551 8.31091 9.05043 8.48426 8.68709 8.79958C8.32376 9.11491 8.08666 9.55095 8.01952 10.0273C7.95238 10.5037 8.05972 10.9883 8.32175 11.3918C8.58378 11.7952 8.98284 12.0904 9.44535 12.2228L13.3916 13.3515C13.5491 13.3953 13.7153 13.4215 13.8728 13.4215C14.1878 13.4215 14.5028 13.334 14.7741 13.1678L16.7341 11.9953C16.9878 12.2228 17.2853 12.4065 17.6266 12.529V17.0615C16.6641 17.0615 15.8766 17.849 15.8766 18.8115H21.1266C21.1266 17.849 20.3391 17.0615 19.3766 17.0615V13.3165L23.4103 17.3503C23.8041 17.744 24.3116 17.9365 24.8191 17.9365C25.3266 17.9365 25.8428 17.744 26.2278 17.3503C26.8578 16.7203 26.9978 15.749 26.5603 14.9703V14.9703ZM13.8816 11.6715L9.9266 10.5428C9.87572 10.5277 9.83112 10.4966 9.79955 10.4539C9.76797 10.4113 9.75114 10.3596 9.7516 10.3065C9.7516 10.1753 9.86535 10.0615 9.9966 10.0615H15.8853C15.8853 10.1928 15.8941 10.324 15.9116 10.4465L13.8816 11.6715V11.6715ZM18.5016 10.9365C18.0203 10.9365 17.6266 10.5428 17.6266 10.0615C17.6266 9.58026 18.0203 9.18651 18.5016 9.18651C18.9828 9.18651 19.3766 9.58026 19.3766 10.0615C19.3766 10.5428 18.9828 10.9365 18.5016 10.9365ZM19.3766 7.55901V4.61901L22.3778 1.81026C22.4216 1.76651 22.5441 1.70526 22.6753 1.77526C22.7891 1.84526 22.8328 1.99401 22.7628 2.10776L19.4903 7.56776L19.3766 7.55901ZM24.9941 16.1165C24.9503 16.1603 24.7841 16.2565 24.6441 16.1165L20.4003 11.8728C20.4703 11.794 20.5403 11.7153 20.6103 11.6278L23.0428 12.2315L25.0378 15.819C25.0903 15.9153 25.0728 16.0378 24.9941 16.1165V16.1165Z" fill="black"/>
</svg>
